<?xml version="1.0" encoding="utf-8"?>
<!-- Generator: Adobe Illustrator 27.5.0, SVG Export Plug-In . SVG Version: 6.00 Build 0)  -->
<svg version="1.1" xmlns="http://www.w3.org/2000/svg" xmlns:xlink="http://www.w3.org/1999/xlink" x="0px" y="0px"
	 viewBox="0 0 700 400" style="enable-background:new 0 0 700 400;" xml:space="preserve">
<g id="_x30_">
	<rect style="opacity:0;fill:#FFFFFF;" width="700" height="400"/>
	<rect style="fill:#FFFFFF;" width="700" height="400"/>
</g>
<g id="bg">
	<path style="fill:#F2FBFF;" d="M667.374,304.709c-1.608,12.675-11.787,43.042-45.221,53.639H65.483
		c-28.342-28.697-25.954-81.024-20.673-106.605c18.043-87.413,89.149-135.311,113.565-152.886
		c63.062-45.39,188.04-60.016,257.529-4.119c16.162,13.001,33.141,31.667,47.975,46.824c38.242,39.038,106.212,29.339,150.69,54.516
		C644.525,213.036,674.25,250.503,667.374,304.709z"/>
	<g>
		
			<rect x="321.786" y="192.083" transform="matrix(-1 -1.224647e-16 1.224647e-16 -1 700.9487 476.3605)" style="fill:#998B80;" width="57.377" height="92.195"/>
		<polygon style="fill:#C7962E;" points="322.602,284.278 308.402,284.278 308.402,182.128 322.602,192.083 		"/>
		<polygon style="fill:#CEE1FF;" points="308.402,168.931 364.963,168.931 379.163,192.083 322.602,192.083 		"/>
		<rect x="354.252" y="155.02" style="fill:#CEE1FF;" width="3.685" height="16.37"/>
		<g>
			<defs>
				<polygon id="SVGID_1_" points="309.91,171.39 366.471,171.39 377.302,189.049 320.741,189.049 				"/>
			</defs>
			<clipPath id="SVGID_00000107579581655397380160000000750603241763821498_">
				<use xlink:href="#SVGID_1_"  style="overflow:visible;"/>
			</clipPath>
			<g style="clip-path:url(#SVGID_00000107579581655397380160000000750603241763821498_);">
				<g>
					<path style="fill:#FFFFFF;" d="M331.081,199.841c-0.111,0-0.219-0.057-0.279-0.16l-20.407-34.778
						c-0.09-0.153-0.039-0.351,0.115-0.441c0.155-0.091,0.352-0.039,0.441,0.115l20.407,34.778c0.09,0.153,0.039,0.351-0.115,0.441
						C331.192,199.827,331.136,199.841,331.081,199.841z"/>
				</g>
				<g>
					<path style="fill:#FFFFFF;" d="M337.914,199.841c-0.111,0-0.219-0.057-0.279-0.16l-20.408-34.778
						c-0.09-0.153-0.039-0.351,0.115-0.441c0.154-0.091,0.351-0.039,0.441,0.115l20.408,34.778c0.09,0.153,0.039,0.351-0.115,0.441
						C338.025,199.827,337.969,199.841,337.914,199.841z"/>
				</g>
				<g>
					<path style="fill:#FFFFFF;" d="M344.746,199.841c-0.111,0-0.219-0.057-0.279-0.16l-20.408-34.778
						c-0.09-0.153-0.038-0.351,0.115-0.441c0.154-0.091,0.351-0.039,0.441,0.115l20.408,34.778c0.09,0.153,0.039,0.351-0.115,0.441
						C344.857,199.827,344.801,199.841,344.746,199.841z"/>
				</g>
				<g>
					<path style="fill:#FFFFFF;" d="M351.578,199.841c-0.111,0-0.219-0.057-0.279-0.16l-20.408-34.778
						c-0.09-0.153-0.039-0.351,0.115-0.441c0.153-0.091,0.352-0.039,0.441,0.115l20.408,34.778c0.09,0.153,0.039,0.351-0.115,0.441
						C351.689,199.827,351.633,199.841,351.578,199.841z"/>
				</g>
				<g>
					<path style="fill:#FFFFFF;" d="M358.409,199.841c-0.11,0-0.218-0.057-0.278-0.16l-20.408-34.778
						c-0.09-0.153-0.039-0.351,0.115-0.441c0.155-0.091,0.352-0.039,0.441,0.115l20.408,34.778c0.09,0.153,0.039,0.351-0.115,0.441
						C358.521,199.827,358.465,199.841,358.409,199.841z"/>
				</g>
				<g>
					<path style="fill:#FFFFFF;" d="M365.241,199.841c-0.11,0-0.218-0.057-0.278-0.16l-20.407-34.778
						c-0.09-0.153-0.039-0.351,0.115-0.441c0.154-0.091,0.352-0.039,0.441,0.115l20.407,34.778c0.09,0.153,0.039,0.351-0.115,0.441
						C365.354,199.827,365.297,199.841,365.241,199.841z"/>
				</g>
				<g>
					<path style="fill:#FFFFFF;" d="M372.073,199.841c-0.11,0-0.218-0.057-0.278-0.16l-20.407-34.778
						c-0.09-0.153-0.039-0.351,0.115-0.441c0.155-0.091,0.352-0.039,0.441,0.115l20.407,34.778c0.09,0.153,0.039,0.351-0.115,0.441
						C372.186,199.827,372.129,199.841,372.073,199.841z"/>
				</g>
				<g>
					<path style="fill:#FFFFFF;" d="M378.905,199.841c-0.11,0-0.218-0.057-0.278-0.16l-20.407-34.778
						c-0.09-0.153-0.039-0.351,0.115-0.441c0.151-0.09,0.351-0.039,0.441,0.115l20.407,34.778c0.09,0.153,0.039,0.351-0.115,0.441
						C379.018,199.827,378.961,199.841,378.905,199.841z"/>
				</g>
			</g>
		</g>
	</g>
	<rect x="208.356" y="234.295" style="fill:#C1DDF4;" width="15.921" height="102.058"/>
	<rect x="195.039" y="220.862" style="fill:#93BAFA;" width="15.921" height="102.058"/>
	<rect x="217.957" y="184.754" style="fill:#93BAFA;" width="35.186" height="116.778"/>
	<rect x="391.484" y="197.886" style="fill:#C1DDF4;" width="35.186" height="116.778"/>
	<rect x="460.93" y="223.712" style="fill:#B1C6E6;" width="35.186" height="116.778"/>
	<g>
		<rect x="411.921" y="177.654" style="fill:#F8EEE4;" width="41.673" height="99.222"/>
		<polygon style="fill:#998B80;" points="453.594,276.875 468.267,276.875 468.267,190.682 453.594,177.654 		"/>
		<path style="fill:#93BAFA;" d="M423.988,197.311h-8.085v-15.165h8.085V197.311z M436.496,182.145h-8.085v15.165h8.085V182.145z
			 M449.003,182.145h-8.085v15.165h8.085V182.145z M423.988,202.858h-8.085v15.165h8.085V202.858z M436.496,202.858h-8.085v15.165
			h8.085V202.858z M449.003,202.858h-8.085v15.165h8.085V202.858z M423.988,223.571h-8.085v15.165h8.085V223.571z M436.496,223.571
			h-8.085v15.165h8.085V223.571z M449.003,223.571h-8.085v15.165h8.085V223.571z M423.988,244.16h-8.085v15.165h8.085V244.16z
			 M436.496,244.16h-8.085v15.165h8.085V244.16z M449.003,244.16h-8.085v15.165h8.085V244.16z"/>
	</g>
	<g>
		<rect x="158.375" y="253.242" style="fill:#F8EEE4;" width="31.818" height="51.581"/>
		<polygon style="fill:#998B80;" points="190.192,304.822 205.733,304.822 205.733,239.629 198.179,239.629 190.192,253.241 		"/>
		<g>
			<defs>
				<polygon id="SVGID_00000170263443169016995480000007744579416836030340_" points="198.179,239.629 166.362,239.629 
					158.375,253.242 190.191,253.242 				"/>
			</defs>
			<use xlink:href="#SVGID_00000170263443169016995480000007744579416836030340_"  style="overflow:visible;fill:#CEE1FF;"/>
			<clipPath id="SVGID_00000049906881219784209260000003763638213571761337_">
				<use xlink:href="#SVGID_00000170263443169016995480000007744579416836030340_"  style="overflow:visible;"/>
			</clipPath>
			<g style="clip-path:url(#SVGID_00000049906881219784209260000003763638213571761337_);">
				<g>
					<path style="fill:#FFFFFF;" d="M181.933,261.56c-0.043,0-0.086-0.012-0.126-0.034c-0.119-0.07-0.158-0.223-0.088-0.341
						l15.732-26.808c0.068-0.12,0.221-0.156,0.34-0.089c0.119,0.07,0.158,0.223,0.088,0.341l-15.731,26.809
						C182.101,261.517,182.018,261.56,181.933,261.56z"/>
				</g>
				<g>
					<path style="fill:#FFFFFF;" d="M178.41,261.56c-0.043,0-0.086-0.012-0.126-0.034c-0.119-0.07-0.158-0.223-0.088-0.341
						l15.731-26.808c0.068-0.12,0.221-0.156,0.34-0.089c0.119,0.07,0.158,0.223,0.088,0.341l-15.731,26.809
						C178.579,261.517,178.495,261.56,178.41,261.56z"/>
				</g>
				<g>
					<path style="fill:#FFFFFF;" d="M174.888,261.56c-0.043,0-0.087-0.012-0.126-0.034c-0.119-0.07-0.158-0.223-0.088-0.341
						l15.731-26.808c0.069-0.12,0.221-0.156,0.34-0.089c0.119,0.07,0.158,0.223,0.088,0.341l-15.731,26.809
						C175.056,261.517,174.973,261.56,174.888,261.56z"/>
				</g>
				<g>
					<path style="fill:#FFFFFF;" d="M171.365,261.56c-0.043,0-0.086-0.012-0.126-0.034c-0.119-0.07-0.158-0.223-0.088-0.341
						l15.731-26.808c0.068-0.12,0.221-0.156,0.34-0.089c0.119,0.07,0.158,0.223,0.088,0.341l-15.731,26.809
						C171.534,261.517,171.45,261.56,171.365,261.56z"/>
				</g>
				<g>
					<path style="fill:#FFFFFF;" d="M167.843,261.56c-0.043,0-0.086-0.012-0.126-0.034c-0.119-0.069-0.158-0.223-0.088-0.341
						l15.731-26.808c0.069-0.12,0.221-0.156,0.34-0.089c0.119,0.069,0.158,0.223,0.088,0.341l-15.731,26.809
						C168.012,261.517,167.928,261.56,167.843,261.56z"/>
				</g>
				<g>
					<path style="fill:#FFFFFF;" d="M164.321,261.56c-0.043,0-0.087-0.012-0.126-0.034c-0.119-0.069-0.158-0.223-0.088-0.341
						l15.731-26.808c0.068-0.12,0.222-0.156,0.34-0.089c0.119,0.069,0.158,0.223,0.088,0.341l-15.731,26.809
						C164.489,261.517,164.406,261.56,164.321,261.56z"/>
				</g>
				<g>
					<path style="fill:#FFFFFF;" d="M160.798,261.56c-0.043,0-0.086-0.012-0.126-0.034c-0.119-0.069-0.158-0.223-0.088-0.341
						l15.731-26.808c0.069-0.12,0.222-0.156,0.34-0.089c0.119,0.069,0.158,0.223,0.088,0.341l-15.731,26.809
						C160.967,261.517,160.883,261.56,160.798,261.56z"/>
				</g>
				<g>
					<path style="fill:#FFFFFF;" d="M157.276,261.56c-0.043,0-0.086-0.012-0.126-0.034c-0.119-0.069-0.158-0.223-0.088-0.341
						l15.731-26.808c0.068-0.12,0.222-0.156,0.34-0.089c0.119,0.069,0.158,0.223,0.088,0.341l-15.731,26.809
						C157.444,261.517,157.361,261.56,157.276,261.56z"/>
				</g>
			</g>
		</g>
	</g>
	<path style="fill:#A6DB99;" d="M539.752,358.348H53.832c2.194-1.614,4.486-3.754,6.96-6.089
		c7.347-6.928,16.383-15.62,29.841-17.846c1.345-0.226,2.603-0.742,3.69-1.517c1.086-0.764,2.012-1.775,2.657-2.98
		c7.81-14.49,22.515-27.345,41.609-34.563c2.388-0.904,4.787-1.689,7.175-2.367c16.104-4.593,31.314-11.908,44.428-22.321
		c37.909-30.11,103.808-44.492,175.409-33.918c77.377,11.446,139.931,48.849,164.146,92.933c0.753,1.377,1.474,2.765,2.162,4.163
		C535.847,341.857,538.504,350.055,539.752,358.348z"/>
	<g>
		<path style="fill:#83C273;" d="M333.429,168.893c5.959-5.997,6.141-15.495,0.396-21.24c-2.978-2.978-6.964-4.35-10.949-4.164
			c0.056-0.93,0.095-1.866,0.095-2.812c0-23.096-16.96-41.819-37.88-41.819c-20.921,0-37.88,18.723-37.88,41.819
			c0,2.03,0.138,4.024,0.391,5.977c-2.484,0.603-4.823,1.845-6.741,3.762c-4.471,4.471-5.336,11.211-2.699,16.809
			c-8.973,10.241-14.386,23.452-14.386,37.883c0,32.522,27.454,58.887,61.32,58.887s61.32-26.364,61.32-58.887
			C346.415,191.447,341.557,178.883,333.429,168.893z"/>
		<g>
			<path style="fill:#579948;" d="M247.593,147.154c-0.247,0-0.463-0.184-0.495-0.436c-0.258-1.986-0.389-4.019-0.389-6.042
				c0-23.335,17.217-42.319,38.38-42.319c21.163,0,38.38,18.984,38.38,42.319c0,0.948-0.029,1.905-0.085,2.843
				c-0.017,0.276-0.249,0.489-0.529,0.469c-0.275-0.017-0.485-0.253-0.469-0.529c0.055-0.918,0.083-1.854,0.083-2.782
				c0-22.783-16.769-41.319-37.38-41.319c-20.612,0-37.38,18.536-37.38,41.319c0,1.98,0.128,3.97,0.38,5.913
				c0.036,0.274-0.157,0.525-0.431,0.56C247.636,147.153,247.615,147.154,247.593,147.154z"/>
		</g>
		<g>
			<path style="fill:#579948;" d="M285.095,264.495c-34.088,0-61.82-26.642-61.82-59.388c0-16.695,7.379-32.714,20.246-43.952
				c0.209-0.182,0.524-0.16,0.706,0.047c0.182,0.208,0.161,0.524-0.047,0.706c-12.649,11.048-19.904,26.794-19.904,43.199
				c0,32.195,27.284,58.388,60.82,58.388c33.536,0,60.82-26.192,60.82-58.388c0-13.153-4.447-25.57-12.86-35.91
				c-0.174-0.214-0.142-0.529,0.072-0.703c0.215-0.174,0.529-0.142,0.703,0.072c8.561,10.52,13.085,23.156,13.085,36.541
				C346.915,237.854,319.182,264.495,285.095,264.495z"/>
		</g>
		<g>
			<path style="fill:#579948;" d="M333.394,169.431c-0.128,0-0.256-0.049-0.353-0.146c-0.195-0.195-0.195-0.512,0-0.707
				c5.79-5.791,5.983-15.019,0.431-20.571c-4.349-4.349-11.081-5.302-16.75-2.369c-0.247,0.125-0.548,0.03-0.674-0.215
				c-0.126-0.245-0.031-0.547,0.215-0.674c6.057-3.133,13.257-2.108,17.916,2.551c5.942,5.942,5.75,15.805-0.431,21.985
				C333.65,169.382,333.522,169.431,333.394,169.431z"/>
		</g>
		<g>
			<path style="fill:#579948;" d="M238.146,167.732c-0.188,0-0.368-0.106-0.453-0.287c-2.791-5.923-1.661-12.909,2.814-17.384
				c5.941-5.942,15.804-5.749,21.985,0.431c0.195,0.195,0.195,0.512,0,0.707c-0.195,0.195-0.512,0.195-0.707,0
				c-5.789-5.79-15.018-5.984-20.571-0.431c-4.177,4.177-5.229,10.708-2.617,16.25c0.118,0.25,0.011,0.548-0.239,0.666
				C238.29,167.717,238.217,167.732,238.146,167.732z"/>
		</g>
		<g>
			<path style="fill:#46332E;" d="M285.569,314.232c-0.628,0-1.137-0.509-1.137-1.137V128.629c0-0.628,0.509-1.137,1.137-1.137
				c0.628,0,1.137,0.509,1.137,1.137v184.467C286.706,313.724,286.197,314.232,285.569,314.232z"/>
		</g>
		<g>
			<path style="fill:#46332E;" d="M285.57,196.657c-0.353,0-0.701-0.163-0.923-0.472l-21.249-29.425
				c-0.368-0.509-0.253-1.22,0.256-1.587c0.51-0.368,1.221-0.253,1.587,0.256l21.249,29.425c0.368,0.509,0.253,1.22-0.256,1.587
				C286.033,196.587,285.8,196.657,285.57,196.657z"/>
		</g>
		<g>
			<path style="fill:#46332E;" d="M286.197,158.284c-0.259,0-0.519-0.088-0.732-0.268c-0.48-0.405-0.541-1.122-0.137-1.602
				l14.785-17.545c0.405-0.48,1.121-0.542,1.603-0.137c0.48,0.405,0.542,1.122,0.137,1.603l-14.785,17.544
				C286.842,158.146,286.521,158.284,286.197,158.284z"/>
		</g>
	</g>
</g>
<g id="car">
	<path style="fill:#BED457;" d="M624.855,328.89c-3.603,10.854-14.852,21.726-17.153,19.063c-2.052-2.375,7.1-12.797,7.314-25.164
		c0.372-21.482,3.768-28.433,6.632-27.275C624.998,296.868,630.912,310.647,624.855,328.89z"/>
	<path style="fill:#BED457;" d="M632.72,333.239c-10.179,5.281-18.252,9.227-20.112,8.092c-1.934-1.181,7.633-12.777,17.812-18.059
		c10.179-5.281,17.061-5.1,18.21-3.228S642.899,327.957,632.72,333.239z"/>
	<ellipse style="fill:#46332E;" cx="240.787" cy="341.717" rx="14.869" ry="16.633"/>
	<ellipse style="fill:#46332E;" cx="355.167" cy="341.717" rx="14.869" ry="16.633"/>
	<path style="fill:#D16434;" d="M229.574,289.661h8.601c1.822,0,3.3-1.477,3.3-3.3l0,0c0-4.511-3.657-8.168-8.168-8.168h-3.733
		c-2.629,0-4.76,2.131-4.76,4.76v1.947C224.814,287.529,226.945,289.661,229.574,289.661z"/>
	<path style="fill:#D16434;" d="M343.782,208.906l-25.45,83.194l-9.638,31.497l-3.654,11.948H203.746v-4.557
		c0-14.888,8.357-28.536,21.607-35.298l4.683-2.394c0.672-0.357,1.323-0.756,1.932-1.197v-0.021
		c2.457-1.785,4.283-4.347,5.186-7.307l18.982-63.099c1.722-5.691,6.068-10.016,11.465-11.843c0.924-0.294,1.848-0.525,2.793-0.693
		c0.924-0.147,1.869-0.231,2.835-0.231H343.782z"/>
	<path style="fill:#D7E7F4;" d="M343.782,208.906l-25.45,83.194h-86.365v-0.021c2.457-1.785,4.283-4.347,5.186-7.307l18.982-63.099
		c1.722-5.691,6.068-10.016,11.465-11.843c0.924-0.294,1.848-0.525,2.793-0.693c0.924-0.147,1.869-0.231,2.835-0.231H343.782z"/>
	<polygon style="fill:#FFFFFF;" points="293.135,208.906 267.454,292.1 247.842,292.1 273.523,208.906 	"/>
	<polygon style="fill:#FFFFFF;" points="308.82,208.906 283.161,292.1 276.358,292.1 302.017,208.906 	"/>
	<path style="fill:#B3491B;" d="M458.98,222.463v113.082H270.205v-4.557c0-14.888,8.336-28.536,21.607-35.298l3.591-1.848
		c4.116-2.1,7.181-5.754,8.525-10.163l19.15-62.574c2.226-7.244,8.924-12.2,16.505-12.2h105.839
		C452.91,208.906,458.98,214.976,458.98,222.463z"/>
	<path style="fill:#87ACE6;" d="M345.197,215.762c-7.24,0-13.615,4.868-15.662,11.959L310.946,292.1h130.94v-64.62
		c0-6.472-5.246-11.718-11.718-11.718H345.197z"/>
	<g>
		<path style="fill:#B3491B;" d="M249.626,244.331c-0.049,0-0.1-0.007-0.149-0.023c-0.264-0.083-0.411-0.363-0.328-0.627
			l7.146-22.875c2.22-7.107,8.715-11.883,16.161-11.883h71.327c0.276,0,0.5,0.224,0.5,0.5c0,0.276-0.224,0.5-0.5,0.5h-71.327
			c-7.006,0-13.117,4.493-15.207,11.182l-7.145,22.875C250.037,244.194,249.839,244.331,249.626,244.331z"/>
	</g>
	
		<rect x="376.836" y="211.937" transform="matrix(0.9809 0.1945 -0.1945 0.9809 56.91 -68.9708)" style="fill:#B3491B;" width="5.804" height="86.865"/>
	<path style="fill:#B3491B;" d="M328.968,289.661h-8.601c-1.822,0-3.3-1.477-3.3-3.3l0,0c0-4.511,3.657-8.168,8.168-8.168h3.732
		c2.629,0,4.76,2.131,4.76,4.76v1.947C333.728,287.529,331.597,289.661,328.968,289.661z"/>
	<g>
		
			<rect x="307.225" y="288.5" transform="matrix(0.8642 -0.5032 0.5032 0.8642 -103.6489 197.5819)" style="fill:#B3491B;" width="13.849" height="4.553"/>
	</g>
	<path style="fill:#332522;" d="M339.1,335.545h-37.062c2.373-8.924,9.764-15.455,18.541-15.455
		C329.336,320.091,336.727,326.621,339.1,335.545z"/>
	<ellipse style="fill:#46332E;" cx="320.574" cy="341.717" rx="14.869" ry="16.633"/>
	<ellipse style="fill:#332522;" cx="320.574" cy="341.717" rx="8.313" ry="9.299"/>
	<path style="fill:#FFFFFF;" d="M327.202,341.717c0,4.095-2.968,7.415-6.628,7.415c-3.661,0-6.628-3.32-6.628-7.415
		c0-4.095,2.968-7.415,6.628-7.415C324.235,334.302,327.202,337.622,327.202,341.717z"/>
	<path style="fill:#332522;" d="M438.61,335.545h-37.062c2.373-8.924,9.764-15.455,18.541-15.455
		C428.846,320.091,436.237,326.621,438.61,335.545z"/>
	<ellipse style="fill:#46332E;" cx="420.085" cy="341.717" rx="14.869" ry="16.633"/>
	<path style="fill:#B3491B;" d="M301.02,337.673h-99.828c-2.07,0-3.748-1.678-3.748-3.748l0,0c0-2.07,1.678-3.748,3.748-3.748
		h99.828c2.07,0,3.748,1.678,3.748,3.748l0,0C304.767,335.996,303.089,337.673,301.02,337.673z"/>
	<path style="fill:#B3491B;" d="M399.006,337.673h-57.803c-2.07,0-3.748-1.678-3.748-3.748l0,0c0-2.07,1.678-3.748,3.748-3.748
		h57.803c2.07,0,3.748,1.678,3.748,3.748l0,0C402.754,335.996,401.076,337.673,399.006,337.673z"/>
	<path style="fill:#D16434;" d="M272.733,337.673h-71.542c-2.07,0-3.748-1.678-3.748-3.748l0,0c0-2.07,1.678-3.748,3.748-3.748
		h71.542c2.07,0,3.748,1.678,3.748,3.748l0,0C276.481,335.996,274.803,337.673,272.733,337.673z"/>
	<ellipse style="fill:#332522;" cx="420.085" cy="341.717" rx="8.313" ry="9.299"/>
	<ellipse style="fill:#FFFFFF;" cx="420.085" cy="341.717" rx="6.628" ry="7.415"/>
	<ellipse style="fill:#FFFFFF;" cx="262.189" cy="316.747" rx="9.045" ry="5.286"/>
	<ellipse style="fill:#FFFFFF;" cx="216.316" cy="316.747" rx="9.045" ry="5.286"/>
	<path style="fill:#46332E;" d="M251.105,319.298h-22.767l0,0c0-4.328,3.509-7.837,7.837-7.837h7.092
		C247.597,311.461,251.105,314.969,251.105,319.298L251.105,319.298z"/>
	<g>
		<path style="fill:#B3491B;" d="M273.764,311.415h-64.555c-0.276,0-0.5-0.224-0.5-0.5c0-0.276,0.224-0.5,0.5-0.5h64.555
			c0.276,0,0.5,0.224,0.5,0.5C274.264,311.191,274.041,311.415,273.764,311.415z"/>
	</g>
	<g>
		<path style="fill:#B3491B;" d="M272.423,330.151h-68.668c-0.276,0-0.5-0.224-0.5-0.5c0-0.276,0.224-0.5,0.5-0.5h68.668
			c0.276,0,0.5,0.224,0.5,0.5C272.923,329.928,272.7,330.151,272.423,330.151z"/>
	</g>
	<g>
		<path style="fill:#332522;" d="M299.984,330.151h-29.779c-0.276,0-0.5-0.224-0.5-0.5c0-0.276,0.224-0.5,0.5-0.5h29.779
			c0.276,0,0.5,0.224,0.5,0.5C300.484,329.928,300.261,330.151,299.984,330.151z"/>
	</g>
	<g>
		<path style="fill:#332522;" d="M397.851,330.151h-57.573c-0.276,0-0.5-0.224-0.5-0.5c0-0.276,0.224-0.5,0.5-0.5h57.573
			c0.276,0,0.5,0.224,0.5,0.5C398.351,329.928,398.127,330.151,397.851,330.151z"/>
	</g>
	<g>
		<path style="fill:#332522;" d="M365.382,330.151h-24.118c-0.276,0-0.5-0.224-0.5-0.5c0-10.056-8.181-18.236-18.237-18.236h-17.76
			c-0.16,0-0.311-0.076-0.404-0.206c-0.094-0.13-0.121-0.296-0.071-0.448l4.895-15.052c0.086-0.264,0.366-0.407,0.63-0.321
			c0.262,0.086,0.406,0.367,0.321,0.63l-4.682,14.397h17.071c10.44,0,18.964,8.359,19.23,18.736h23.21l5.844-31.269
			c0.051-0.272,0.317-0.449,0.583-0.399c0.272,0.051,0.45,0.311,0.399,0.583l-5.92,31.677
			C365.829,329.979,365.623,330.151,365.382,330.151z"/>
	</g>
	<g>
		<path style="fill:#332522;" d="M395.201,330.151c-0.053,0-0.107-0.009-0.16-0.026c-0.262-0.089-0.402-0.372-0.313-0.634
			c3.865-11.41,14.556-19.076,26.603-19.076h20.055v-12.65c0-0.276,0.224-0.5,0.5-0.5s0.5,0.224,0.5,0.5v13.15
			c0,0.276-0.224,0.5-0.5,0.5h-20.555c-11.618,0-21.929,7.394-25.656,18.396C395.605,330.021,395.409,330.151,395.201,330.151z"/>
	</g>
	<path style="fill:#46332E;" d="M366.274,297.764h-9.134c-0.525,0-0.95-0.426-0.95-0.95l0,0c0-0.525,0.425-0.951,0.95-0.951h9.134
		c0.525,0,0.95,0.426,0.95,0.951l0,0C367.224,297.339,366.799,297.764,366.274,297.764z"/>
	<path style="fill:#46332E;" d="M436.454,297.764h-9.134c-0.525,0-0.95-0.426-0.95-0.95l0,0c0-0.525,0.426-0.951,0.95-0.951h9.134
		c0.525,0,0.95,0.426,0.95,0.951l0,0C437.404,297.339,436.979,297.764,436.454,297.764z"/>
	<polygon style="fill:#CEE1FF;" points="363.323,292.081 361.707,292.1 361.707,215.762 363.323,215.743 	"/>
	<rect x="417.88" y="215.743" style="fill:#CEE1FF;" width="4.451" height="76.338"/>
	<polygon style="fill:#CEE1FF;" points="413.457,292.1 411.251,292.081 411.251,215.743 413.457,215.762 	"/>
	<path style="fill:#332522;" d="M449.11,325.084h-8.068c-1.344,0-2.433-1.089-2.433-2.433v-4.839c0-1.344,1.089-2.433,2.433-2.433
		h8.068c1.344,0,2.433,1.089,2.433,2.433v4.839C451.543,323.995,450.454,325.084,449.11,325.084z"/>
	<ellipse style="fill:#D16434;" cx="294.333" cy="304.075" rx="4.073" ry="1.537"/>
	<path style="fill:#D16434;" d="M454.998,304.075c0,0.849-1.823,1.537-4.073,1.537c-2.249,0-4.073-0.688-4.073-1.537
		c0-0.849,1.823-1.537,4.073-1.537C453.174,302.538,454.998,303.227,454.998,304.075z"/>
	<path style="fill:#46332E;" d="M554.009,358.348H487.74V161.272c0-5.046,4.09-9.136,9.136-9.136h47.998
		c5.046,0,9.136,4.09,9.136,9.136V358.348z"/>
	<path style="fill:#E4F2A7;" d="M549.57,358.348H483.3V161.272c0-5.046,4.09-9.136,9.136-9.136h47.998
		c5.046,0,9.136,4.09,9.136,9.136V358.348z"/>
	<path style="fill:#579948;" d="M530.197,293.038h-27.524c-3.005,0-5.442-2.436-5.442-5.442v-76.87c0-3.005,2.436-5.442,5.442-5.442
		h27.524c3.005,0,5.442,2.436,5.442,5.442v76.87C535.639,290.601,533.203,293.038,530.197,293.038z"/>
	<g>
		<path style="fill:#FFFFFF;" d="M529.193,290.971h-25.517c-2.465,0-4.47-2.005-4.47-4.47V211.82c0-2.465,2.005-4.47,4.47-4.47
			h25.517c2.465,0,4.47,2.005,4.47,4.47v74.681C533.663,288.966,531.658,290.971,529.193,290.971z M503.677,208.351
			c-1.913,0-3.47,1.557-3.47,3.47v74.681c0,1.913,1.557,3.47,3.47,3.47h25.517c1.913,0,3.47-1.557,3.47-3.47V211.82
			c0-1.913-1.557-3.47-3.47-3.47H503.677z"/>
	</g>
	<path style="fill:#332522;" d="M520.874,275.155c0,2.452-1.988,4.439-4.439,4.439c-2.452,0-4.439-1.987-4.439-4.439
		c0-2.452,1.987-4.439,4.439-4.439C518.887,270.716,520.874,272.704,520.874,275.155z"/>
	<path style="fill:#332522;" d="M447.823,320.232c0,1.639-1.329,2.969-2.969,2.969c-1.64,0-2.969-1.329-2.969-2.969
		c0-1.64,1.329-2.969,2.969-2.969C446.494,317.263,447.823,318.592,447.823,320.232z"/>
	<path style="fill:#332522;" d="M517.45,275.155c-0.173,8.716-0.2,17.433-0.288,26.149c-0.083,1.99,0.156,4.692-0.233,6.642
		c-1.022,6.843-7.121,12.47-14.032,12.917c-7.457,0.17-18.655,0.09-26.205,0.19c0,0-13.074,0.127-13.074,0.127
		c-3.891,0.17-9.383-0.47-13.075,1.318c0,0,0-4.532,0-4.532c3.686,1.785,9.157,1.148,13.075,1.318
		c9.445,0.101,23.282,0.203,32.687,0.241c1.859-0.022,4.681,0.081,6.478-0.049c6.278-0.419,11.814-5.545,12.727-11.763
		c0.321-2.008,0.162-4.233,0.198-6.408c-0.088-8.716-0.115-17.433-0.288-26.149H517.45L517.45,275.155z"/>
	<path style="fill:#579948;" d="M630.288,358.348H461.313c16.152-1.597,29.53-18.525,63.066-29.759
		c0.615-0.212,1.253-0.424,1.889-0.625c17.254-5.55,43.523-2.457,57.721,6.689c2.3-5.036,14.231-13.869,24.153-10.832
		c15.04,4.589,11.682,20.133,16.315,29.111C625.677,355.3,627.459,357.22,630.288,358.348z"/>
	
		<ellipse transform="matrix(0.9479 -0.3186 0.3186 0.9479 -29.2306 173.7213)" style="fill:#46332E;" cx="516.435" cy="176.216" rx="17.028" ry="17.028"/>
	<path style="fill:#E4F2A7;" d="M517.459,167.232l-4.104,11.057l-1.746-2.58c2.668-0.296,9.483-1.051,12.065-1.337
		c-1.617,1.949-8.249,9.944-9.99,12.043l4.752-10.827l1.601,2.495c-2.718,0.373-9.518,1.306-12.153,1.668
		C509.481,177.662,515.747,169.47,517.459,167.232L517.459,167.232z"/>
	<path style="fill:#FFFFFF;" d="M518.873,248.828h-4.875c-2.774,0-5.022-2.249-5.022-5.022v-21.027c0-2.774,2.249-5.022,5.022-5.022
		h4.875c2.774,0,5.022,2.249,5.022,5.022v21.027C523.895,246.579,521.646,248.828,518.873,248.828z"/>
	<path style="fill:#332522;" d="M519.574,228.217c0,1.734-1.405,3.139-3.139,3.139c-1.734,0-3.139-1.405-3.139-3.139
		c0-1.734,1.405-3.139,3.139-3.139C518.169,225.078,519.574,226.484,519.574,228.217z"/>
	<path style="fill:#332522;" d="M519.574,239.794c0,1.734-1.405,3.139-3.139,3.139c-1.734,0-3.139-1.405-3.139-3.139
		c0-1.734,1.405-3.139,3.139-3.139C518.169,236.655,519.574,238.06,519.574,239.794z"/>
	<g>
		<path style="fill:#FFFFFF;" d="M523.895,258.484h-14.92c-0.276,0-0.5-0.224-0.5-0.5v-3.42c0-0.276,0.224-0.5,0.5-0.5h14.92
			c0.276,0,0.5,0.224,0.5,0.5v3.42C524.395,258.261,524.171,258.484,523.895,258.484z M509.475,257.484h13.92v-2.42h-13.92V257.484z
			"/>
	</g>
	<path style="fill:#3F7232;" d="M212.471,358.348H106.091c4.228-0.398,8.638-2.033,12.177-4.314
		c4.927-3.173,9.94-5.658,15.942-5.658c2.463,0,4.819,0.323,6.971,0.925c2.377,0.656,4.916-0.559,5.701-2.883
		c0.323-0.968,0.796-1.85,1.42-2.657c2.539-3.27,7.089-4.432,12.242-3.625c2.593,0.409,5.346,1.323,8.079,2.722
		c2.84,1.452,6.046,2.087,9.198,1.775c0.441-0.043,0.882-0.108,1.323-0.194c0.054-0.011,0.118-0.021,0.172-0.032
		c1.915-0.387,4.346-0.635,7.272-0.538c0.097,0,0.194,0.011,0.29,0.022C200.154,344.471,205.156,354.411,212.471,358.348z"/>
	<path style="fill:#579948;" d="M186.416,358.348h-10.305c-3.894-2.754-8.337-7.132-12.274-12.952
		c-1.216-1.797-2.313-3.55-3.292-5.26c-7.283-12.608-8.563-22.493-6.336-23.386c3.496-1.398,12.565,9.94,19.955,20.439
		c0.904,1.28,1.786,2.539,2.614,3.754c0.839,1.205,1.624,2.367,2.366,3.496C183.157,350.463,185.9,355.315,186.416,358.348z"/>
	<path style="fill:#579948;" d="M188.579,358.348h-6.046c-0.516-1.7-1.14-3.797-2.087-6.271c-1.054-2.775-1.936-5.26-2.625-7.444
		c-0.43-1.345-0.775-2.582-1.043-3.69c-0.915-3.84-0.85-6.25,0.527-7.014c2.797-1.56,7.197,3.442,9.574,9.961
		c0.377,1.043,0.71,2.13,0.968,3.227C188.837,351.302,189.02,355.358,188.579,358.348z"/>
	<g>
		<path style="fill:#579948;" d="M176.724,347.675c-9.477-18.302,2.768-34.9,2.892-35.065l0.799,0.602
			c-0.121,0.161-11.985,16.271-2.803,34.005L176.724,347.675z"/>
	</g>
	<path style="fill:#FFD06B;" d="M184.181,314.853c-1.351,2.341-4.543,3.029-7.128,1.536c-2.585-1.492-3.585-4.6-2.233-6.941
		c1.351-2.341,4.543-3.029,7.128-1.536C184.533,309.405,185.533,312.512,184.181,314.853z"/>
	<g>
		<path style="fill:#46332E;" d="M483.3,208.351c-0.276,0-0.5-0.224-0.5-0.5v-45.765c0-5.762,4.688-10.45,10.45-10.45h24.445
			c0.276,0,0.5,0.224,0.5,0.5c0,0.276-0.224,0.5-0.5,0.5H493.25c-5.211,0-9.45,4.239-9.45,9.45v45.765
			C483.8,208.127,483.576,208.351,483.3,208.351z"/>
	</g>
</g>
<g id="_pers">
	<path style="fill:#46332E;" d="M619.805,358.014h-29.21l-0.125-2.208l0.711-11.884c0,0,16.1-1.778,16.1,0.111
		c0,5.364,3.834,9.476,7.885,9.779c1.353,0.098,2.413,0.16,3.33,0.303c0.757,0.125,1.095,0.881,1.247,1.691
		C619.938,356.856,619.805,358.014,619.805,358.014z"/>
	<path style="fill:#46332E;" d="M566.3,347.772l-1.318,8.369l-0.347,2.208h-36.092c-0.027-0.828,0.071-1.629,0.374-2.208
		c0.223-0.427,0.561-0.739,1.033-0.863c2.083-0.534,4.906-1.683,8.039-2.733c8.039-2.698,9.117-7.042,9.117-7.042L566.3,347.772z"/>
	<path style="fill:#426AAD;" d="M590.049,241.588c-1.659,16.004-24.271,109.494-24.271,109.494l-19.212-5.149
		c0,0,16.353-65.521,24.394-97.033c1.399-5.484,3.465-10.749,5.815-15.898c0.107-0.234,0.183-0.433,0.217-0.581
		c0,0,11.851,2.304,11.851,2.304L590.049,241.588z"/>
	<path style="fill:#426AAD;" d="M609.495,347.312l-19.446,3.236c0,0-2.719-99.013-3.175-113.16l9.727-10.066l0,0
		c4.26,5.084,6.8,11.375,7.272,17.992C605.909,273.849,609.495,347.312,609.495,347.312z"/>
	<path style="fill:#FFD06B;" d="M539.684,206.822c0,0,7.439,18.836,11.076,26.636c3.365,7.216,11.568,5.712,16.542-0.526
		c7.58-9.506,16.729-18.639,20.405-25.469l-0.902-7.538c-1.641,0-5.188,0.318-7.188,0.47c-3.958,0.3-7.684,1.979-10.551,4.724
		l-9.898,10.983l-7.701-15.539L539.684,206.822z"/>
	<g>
		<path style="fill:#332522;" d="M587.493,258.853c-0.135,0-0.246-0.107-0.25-0.243l-0.172-6.046c-0.066-1.466-0.497-2.355-1.4-2.88
			l-1.659-0.621c-0.13-0.049-0.194-0.193-0.146-0.322c0.05-0.129,0.197-0.194,0.322-0.146l1.697,0.64
			c1.09,0.63,1.613,1.676,1.687,3.313l0.172,6.05c0.004,0.138-0.104,0.253-0.243,0.257
			C587.498,258.853,587.495,258.853,587.493,258.853z"/>
	</g>
	<path style="fill:#FAFAFA;" d="M564.982,356.141l-0.347,2.208h-36.092c-0.027-0.828,0.071-1.629,0.374-2.208H564.982z"/>
	<path style="fill:#FAFAFA;" d="M619.805,358.348H590.26l0.21-2.208h29.273C619.938,357.191,619.805,358.348,619.805,358.348z"/>
	<g>
		<path style="fill:#915442;" d="M545.489,351.332c-0.071,0-0.143-0.03-0.192-0.09l-1.407-1.686
			c-0.088-0.105-0.074-0.264,0.032-0.353c0.106-0.086,0.263-0.075,0.353,0.032l1.407,1.686c0.088,0.105,0.074,0.264-0.032,0.353
			C545.603,351.313,545.546,351.332,545.489,351.332z"/>
	</g>
	<g>
		<path style="fill:#915442;" d="M546.567,350.296c-0.071,0-0.143-0.03-0.192-0.09l-1.407-1.686
			c-0.088-0.105-0.074-0.264,0.032-0.353c0.104-0.087,0.264-0.075,0.353,0.032l1.407,1.686c0.088,0.105,0.074,0.264-0.032,0.353
			C546.681,350.276,546.624,350.296,546.567,350.296z"/>
	</g>
	<g>
		<path style="fill:#915442;" d="M603.626,351.265c-0.067,0-0.135-0.027-0.185-0.081c-0.093-0.103-0.086-0.26,0.016-0.353
			c2.196-2.01,5.399-1.326,5.537-1.295c0.135,0.03,0.219,0.163,0.189,0.298c-0.03,0.135-0.167,0.218-0.298,0.19
			c-0.033-0.006-3.09-0.656-5.091,1.176C603.747,351.243,603.687,351.265,603.626,351.265z"/>
	</g>
	<g>
		<path style="fill:#915442;" d="M604.594,352.308c-0.067,0-0.135-0.027-0.185-0.081c-0.093-0.102-0.086-0.26,0.016-0.354
			c2.205-2.017,5.516-1.085,5.657-1.044c0.132,0.039,0.208,0.178,0.17,0.31c-0.039,0.133-0.183,0.209-0.31,0.171
			c-0.031-0.009-3.183-0.896-5.18,0.933C604.715,352.286,604.654,352.308,604.594,352.308z"/>
	</g>
	<path style="fill:#FFD06B;" d="M614.319,211.636c-0.076,4.527-9.2,7.367-9.2,7.367s-1.709,19.453-1.815,20.672
		c-0.045,0.515-30.022-0.814-30.022-0.814c-0.318-0.643-0.129-1.4,0.568-1.968c0.651-0.53,1.113-0.969,0.969-1.794
		c-2.21-12.345-5.973-20.15-5.246-26.266c0.288-2.414,1.832-4.322,4.632-5.707c4.413-2.18,12.542-3.505,17.507-3.505
		c8.19,0,11.85,1.468,17.015,3.831C613.086,205.446,614.371,208.523,614.319,211.636z"/>
	<path style="fill:#332522;" d="M593.778,177.295c1.139-1.522,3.039-2.026,4.242-1.125c1.204,0.901,1.256,2.865,0.117,4.387
		c-1.139,1.522-3.038,2.026-4.242,1.125C592.691,180.781,592.639,178.817,593.778,177.295z"/>
	<path style="fill:#332522;" d="M585.625,175.484c0.971,0.726,1.296,1.931,0.727,2.691c-0.569,0.76-1.817,0.787-2.787,0.061
		c-0.971-0.726-1.296-1.931-0.728-2.691C583.406,174.784,584.654,174.757,585.625,175.484z"/>
	<path style="fill:#332522;" d="M585.518,185.999c-1.206,0.696-2.597,0.544-3.107-0.34c-0.51-0.884,0.054-2.164,1.259-2.86
		c1.206-0.696,2.597-0.544,3.107,0.34C587.288,184.022,586.724,185.303,585.518,185.999z"/>
	<path style="fill:#332522;" d="M598.735,186.634c-1.12,0.863-3.058,0.219-4.337-1.431c-1.037-1.347-1.325-2.937-0.802-3.951
		c0.045-0.083,0.098-0.167,0.151-0.242l1.491-0.742l2.589-1.302c0.401,2.112,1.317,4.322,1.317,4.322l-0.008,0.008
		C599.704,184.628,599.583,185.975,598.735,186.634z"/>
	<path style="fill:#332522;" d="M597.856,186.707c0.586,2.216-0.238,4.356-1.841,4.78c-1.602,0.423-3.376-1.03-3.962-3.246
		c-0.586-2.216,0.238-4.356,1.841-4.78C595.496,183.038,597.27,184.491,597.856,186.707z"/>
	<path style="fill:#F0AF8D;" d="M591.734,197.367c-2.536,0-4.594-0.462-4.632-1.037c0-0.008,0-0.008,0-0.015
		c0-0.008,0-0.015,0.008-0.023l0.015-0.28l0.386-6.26l0.182-2.869h8.076l0.59,9.423v0.008
		C596.358,196.897,594.284,197.367,591.734,197.367z"/>
	<path style="fill:#332522;" d="M592.879,190.177c-0.868,2.8-2.242,4.565-5.691,4.784l0.321-5.209
		C590.878,188.965,593.484,188.227,592.879,190.177z"/>
	<path style="fill:#F0AF8D;" d="M591.797,192.6c-1.897,1.197-4.398,1.737-6.174,0.294c-1.03-0.837-1.269-2.997-1.333-4.413
		c-0.085-1.906-0.037-3.314,0.013-5.217c0.089-3.312,3.13-5.857,6.615-5.533l4.207,0.39c0,0,0.25,8.244,0.077,9.729
		C594.994,189.643,593.662,191.423,591.797,192.6z"/>
	<path style="fill:#332522;" d="M597.618,180.431c-0.232-1.426,0.131-1.906-0.399-2.728c-2.031-3.151-3.215-4.065-5.588-4.716
		c-2.412-0.662-5.638,0.227-6.503,1.996c-0.278,0.569-0.735,0.838-1.262,1.188c-0.195,0.129-0.359,0.267-0.479,0.327
		c-3.208,1.604-4.183,4.788-2.374,6.534c1.386,1.337,4.253,1.021,7.009-0.803c1.331-0.881,3.467-2.78,3.467-2.78
		c0.763-0.346,1.043,1.802,1.096,2.492c0.09,1.169,0.584,2.305,1.64,2.889c0.385,0.213,0.828,0.32,1.266,0.249
		C596.969,184.839,597.997,182.76,597.618,180.431z"/>
	<path style="fill:#F0AF8D;" d="M596.549,186.407c-0.87,0.87-2.151,1-2.861,0.29s-0.58-1.991,0.29-2.861
		c0.87-0.87,2.151-1,2.861-0.29S597.419,185.537,596.549,186.407z"/>
	<path style="fill:#332522;" d="M590.476,183.955c0,0.41-0.266,0.742-0.595,0.742c-0.329,0-0.595-0.332-0.595-0.742
		s0.266-0.742,0.595-0.742C590.21,183.213,590.476,183.546,590.476,183.955z"/>
	<ellipse style="fill:#332522;" cx="584.917" cy="184.136" rx="0.595" ry="0.742"/>
	<path style="fill:#332522;" d="M588.882,181.666c0.231-0.119,0.576-0.121,0.798-0.112c0.466,0.018,1.017,0.234,1.396,0.503
		c0.311,0.221,0.51,0.331,0.551,0.499c0.103,0.436-1.442,0.181-1.734,0.116c-0.623-0.138-1.161-0.224-1.246-0.548
		C588.587,181.895,588.72,181.749,588.882,181.666z"/>
	<g>
		<path style="fill:#915442;" d="M587.445,186.686c-0.026,0-0.053-0.004-0.079-0.013l-0.622-0.208
			c-0.198-0.066-0.353-0.201-0.436-0.38c-0.091-0.197-0.09-0.433,0.004-0.665l0.54-1.442c0.049-0.129,0.19-0.196,0.322-0.146
			c0.129,0.048,0.194,0.192,0.147,0.322l-0.543,1.447c-0.044,0.108-0.049,0.203-0.016,0.273c0.024,0.054,0.071,0.093,0.14,0.115
			l0.622,0.207c0.131,0.044,0.202,0.186,0.158,0.316C587.647,186.619,587.55,186.686,587.445,186.686z"/>
	</g>
	<path style="fill:#FFFFFF;" d="M587.596,186.886c0,0,1.454-0.112,2.07-0.705c0,0,0.052,1.341-0.692,1.756
		C588.338,188.292,587.65,187.548,587.596,186.886z"/>
	<g>
		<path style="fill:#915442;" d="M594.546,185.29c-0.047,0-0.094-0.013-0.136-0.04c-0.116-0.075-0.149-0.23-0.074-0.345
			c0.019-0.029,0.459-0.699,1.06-0.87c0.364-0.1,0.601-0.001,0.736,0.101c0.209,0.159,0.283,0.398,0.283,0.555
			c0,0.138-0.112,0.25-0.25,0.25s-0.25-0.112-0.25-0.25c0-0.029-0.021-0.108-0.085-0.156c-0.082-0.063-0.208-0.044-0.298-0.019
			c-0.349,0.099-0.68,0.51-0.777,0.661C594.708,185.251,594.627,185.29,594.546,185.29z"/>
	</g>
	<path style="fill:#426AAD;" d="M596.583,199.904c0,0.011,0,0.011,0,0.011v0.011c-0.011,0.473-1.441,0.861-3.399,1
		c-0.463,0.032-0.947,0.043-1.452,0.043c-0.495,0-0.99-0.011-1.442-0.043c-1.969-0.14-3.399-0.527-3.41-1v-0.011
		c0,0,0-0.011,0-0.021l0.226-3.561c0.032,0.57,2.098,1.033,4.626,1.033c2.549,0,4.626-0.462,4.626-1.054L596.583,199.904z"/>
	<g>
		<defs>
			<path id="SVGID_00000087370969183597127450000013602203022710552960_" d="M596.585,199.902c0,0.008,0,0.008,0,0.015v0.007
				c-0.015,0.469-1.446,0.863-3.406,0.999h-2.891c-1.968-0.136-3.399-0.53-3.414-0.999v-0.007c0-0.008,0-0.015,0.008-0.023
				l0.219-3.565c0.038,0.575,2.097,1.037,4.632,1.037c2.551,0,4.625-0.469,4.625-1.052L596.585,199.902z"/>
		</defs>
		<clipPath id="SVGID_00000082354376376274724970000015109186209915904696_">
			<use xlink:href="#SVGID_00000087370969183597127450000013602203022710552960_"  style="overflow:visible;"/>
		</clipPath>
		<g style="clip-path:url(#SVGID_00000082354376376274724970000015109186209915904696_);">
			<g>
				<path style="fill:#332522;" d="M589.347,202.356c-0.001,0-0.002,0-0.003,0c-0.139-0.002-0.249-0.115-0.247-0.253l0.084-6.251
					c0.002-0.138,0.107-0.254,0.253-0.247c0.139,0.002,0.249,0.115,0.247,0.253l-0.084,6.25
					C589.595,202.247,589.483,202.356,589.347,202.356z"/>
			</g>
			<g>
				<path style="fill:#332522;" d="M591.818,202.573c-0.137,0-0.248-0.109-0.25-0.246l-0.089-6.485
					c-0.002-0.138,0.108-0.251,0.246-0.253c0.002,0,0.003,0,0.004,0c0.137,0,0.248,0.11,0.25,0.247l0.089,6.484
					c0.002,0.139-0.108,0.252-0.246,0.254C591.82,202.573,591.819,202.573,591.818,202.573z"/>
			</g>
			<g>
				<path style="fill:#332522;" d="M594.291,202.79c-0.134,0-0.244-0.105-0.25-0.24l-0.263-6.719
					c-0.005-0.138,0.102-0.254,0.24-0.26c0.161,0.011,0.254,0.102,0.26,0.24l0.263,6.719c0.005,0.138-0.103,0.254-0.24,0.26
					C594.298,202.79,594.294,202.79,594.291,202.79z"/>
			</g>
		</g>
	</g>
	<path style="fill:#FFD06B;" d="M597.629,225.085l-13.323-0.531l19.156-21.903l7.172,1.868c5.283,3.425,4.829,11.192,1.103,14.955
		c-4.561,4.607-10.261,10.347-14.957,15.087c-4.148,4.186-11.097,3.461-14.292-1.491c-5.534-8.576-14.685-24.03-14.685-24.03
		l11.497-6.919L597.629,225.085z"/>
	<path style="fill:#F0AF8D;" d="M554.188,205.917l-12.5,5.766l-2.028-4.997c-0.402-0.991-1.168-1.792-2.141-2.237l-3.369-1.542
		l0.61-5.187l7.25-2.818l4.174,3.399l2.065-2.722l0.054-2.56l-0.258-0.28l0.269,0.172l0.473,0.28l4.679,2.463l-0.422,6.033
		c-0.076,1.08,0.134,2.16,0.609,3.133L554.188,205.917z"/>
	<path style="fill:#F0AF8D;" d="M581.727,205.067l-12.586,6.099l-0.975-1.513c-0.653-1.013-1.577-1.823-2.677-2.315
		c-1.286-0.576-2.64-1.33-3.778-2.054c-1.404-0.892-2.201-2.479-2.06-4.136c0.172-2.016,0.421-4.252,0.475-5.849
		c1.312,0.871,3.948,2.614,5.26,3.475c0.333,0.226,0.538,0.516,0.635,0.818l8.623-4.999L581.727,205.067z"/>
	<path style="fill:#F0AF8D;" d="M564.345,199.479l-11.976-7.071c-1.919-1.153-1.686-4.23,0.396-3.444c0,0,14.192,5.102,14.192,5.102
		C570.919,195.776,568.158,201.515,564.345,199.479L564.345,199.479z"/>
	<path style="fill:#F0AF8D;" d="M564.771,200.976c-0.702,0.186-1.764,0.474-2.842,0.766c-1.557,0.422-3.071-0.805-2.975-2.415
		c0.071-1.193,0.15-2.53,0.222-3.756c0.12-2.029,2.144-3.381,4.065-2.717c1.516,0.524,3.041,1.051,3.908,1.351
		c2.657,0.995,1.3,4.926-1.406,4.067l-5.051-1.746l2.851-1.906l-0.312,5.269l-2.436-2.259l3.522-0.018
		C566.307,197.607,566.67,200.465,564.771,200.976L564.771,200.976z"/>
	<path style="fill:#F0AF8D;" d="M568.962,201.288c-0.726,0.248-1.842,0.634-2.945,1.016c-1.352,0.468-2.771-0.499-2.819-1.93
		c-0.045-1.351-0.105-2.945-0.161-4.393c-0.078-2.003,1.909-3.438,3.786-2.735c1.271,0.476,2.505,0.94,3.27,1.247
		c2.604,1.128,1.05,4.985-1.609,3.991l-3.866-1.558l2.956-1.995v5.325l-2.567-2.111l3.299-0.187
		C570.28,197.849,570.808,200.654,568.962,201.288L568.962,201.288z"/>
	<path style="fill:#F0AF8D;" d="M573.717,200.697c-0.693,0.383-1.679,0.72-2.723,1.3c-1.327,0.738-2.969-0.154-3.066-1.669
		c-0.089-1.39-0.19-2.975-0.278-4.365c-0.113-1.779,1.549-3.143,3.273-2.69c1.01,0.265,1.984,0.521,2.654,0.697
		c2.726,0.79,1.67,4.813-1.093,4.162c0,0-3.274-0.859-3.274-0.859l2.693-2.218l0.312,4.881l-2.927-1.868l2.661-0.636
		C573.877,196.976,575.426,199.75,573.717,200.697L573.717,200.697z"/>
	<g>
		<path style="fill:#915442;" d="M546.383,204.727c-0.114,0-0.218-0.079-0.244-0.195c-0.342-1.513-2.03-2.077-2.047-2.083
			c-0.132-0.042-0.203-0.184-0.16-0.314c0.043-0.131,0.184-0.204,0.314-0.16c0.081,0.025,1.977,0.661,2.381,2.448
			c0.03,0.135-0.055,0.268-0.19,0.299C546.419,204.725,546.401,204.727,546.383,204.727z"/>
	</g>
	<g>
		<path style="fill:#915442;" d="M569.644,202.484c-0.403,0-0.781-0.09-1.102-0.312c-1.076-0.742-1.324-6.12-1.335-6.349
			c-0.059-1.347,0.802-2.151,1.122-2.292c0.122-0.054,0.273,0.002,0.329,0.128c0.056,0.126-0.002,0.274-0.128,0.33
			c-0.195,0.086-0.871,0.73-0.823,1.812c0.099,2.243,0.542,5.561,1.118,5.959c0.838,0.576,2.351-0.093,3.178-0.545
			c1.209-0.659,2.307-1.364,2.162-2.063c-0.142-0.688-0.583-1.03-1.524-1.184c-0.758-0.124-1.912,0.23-1.924,0.233
			c-0.136,0.043-0.272-0.033-0.313-0.165c-0.04-0.132,0.033-0.272,0.165-0.313c0.052-0.017,1.279-0.391,2.152-0.249
			c0.775,0.126,1.696,0.419,1.935,1.576c0.221,1.067-1.07,1.871-2.412,2.603C571.472,202.076,570.501,202.484,569.644,202.484z"/>
	</g>
	<g>
		<path style="fill:#915442;" d="M565.273,202.564c-0.569,0-1.149-0.105-1.588-0.359c-0.356-0.205-0.577-0.492-0.642-0.831
			c-0.194-1.002-0.408-4.463-0.199-6.11c0.094-0.738,0.479-1.719,1.783-2.199c0.125-0.046,0.294,0.004,0.345,0.129
			c0.052,0.124,0.023,0.256-0.099,0.312c-0.006,0.003-0.066,0.026-0.073,0.029c-0.857,0.315-1.349,0.919-1.46,1.793
			c-0.2,1.573,0.01,5.001,0.193,5.952c0.038,0.195,0.173,0.361,0.401,0.493c0.589,0.342,1.729,0.389,2.541,0.107
			c1.125-0.389,1.711-0.698,1.717-0.701c0.119-0.063,0.273-0.02,0.338,0.104c0.064,0.121,0.019,0.273-0.103,0.338
			c-0.025,0.013-0.622,0.329-1.788,0.732C566.259,202.484,565.77,202.564,565.273,202.564z"/>
	</g>
	<g>
		<path style="fill:#915442;" d="M561.373,202.075c-0.015,0-0.029,0-0.044,0c-1.214-0.014-1.841-0.752-1.867-0.783
			c-0.088-0.107-0.073-0.265,0.032-0.353c0.105-0.088,0.264-0.074,0.352,0.032c0.025,0.03,0.521,0.593,1.489,0.604
			c1.008,0.002,1.817-0.457,1.825-0.462c0.117-0.07,0.272-0.034,0.343,0.085c0.071,0.118,0.033,0.271-0.085,0.343
			C563.382,201.564,562.521,202.075,561.373,202.075z"/>
	</g>
	<g>
		<path style="fill:#915442;" d="M559.126,196.648c-0.136,0-0.247-0.108-0.25-0.244c-0.012-0.527,0.03-2.316,1.084-3.209
			c1.093-0.926,2.836-0.708,2.907-0.699c0.138,0.018,0.233,0.144,0.216,0.28c-0.019,0.137-0.146,0.234-0.28,0.216
			c-0.017-0.001-1.598-0.197-2.52,0.585c-0.703,0.595-0.93,1.844-0.907,2.815c0.003,0.138-0.106,0.252-0.244,0.256
			C559.13,196.648,559.128,196.648,559.126,196.648z"/>
	</g>
	<g>
		<path style="fill:#915442;" d="M590.519,237.608c-0.33,0-0.662-0.018-0.995-0.053c-2.868-0.303-5.388-1.88-6.914-4.327
			L568.929,211.3c-0.073-0.117-0.037-0.271,0.08-0.345c0.115-0.071,0.271-0.037,0.344,0.079l13.681,21.931
			c1.444,2.314,3.829,3.807,6.543,4.094c2.704,0.285,5.357-0.675,7.255-2.64l7.487-7.754c0.096-0.1,0.254-0.101,0.354-0.006
			c0.1,0.096,0.102,0.254,0.006,0.354l-7.487,7.754C595.419,236.601,593.03,237.608,590.519,237.608z"/>
	</g>
	<g>
		<path style="fill:#915442;" d="M594.446,221.256c-0.073,0-0.147-0.032-0.195-0.094l-12.72-15.938
			c-0.086-0.108-0.068-0.266,0.039-0.352c0.107-0.086,0.267-0.068,0.352,0.039l12.72,15.938c0.086,0.108,0.068,0.266-0.039,0.352
			C594.557,221.238,594.501,221.256,594.446,221.256z"/>
	</g>
	<g>
		<path style="fill:#915442;" d="M591.118,217.086c-0.06,0-0.119-0.021-0.167-0.064c-0.102-0.092-0.111-0.25-0.018-0.353
			l7.066-7.847c0.092-0.102,0.25-0.11,0.352-0.019c0.103,0.092,0.111,0.25,0.019,0.353l-7.066,7.847
			C591.255,217.058,591.187,217.086,591.118,217.086z"/>
	</g>
	<path style="fill:#46332E;" d="M550.036,201.593l-0.979,0.903c-0.118,0.151-0.301,0.248-0.506,0.269l-7.648,0.882
		c-0.398,0.054-0.775-0.215-0.861-0.602l-4.593-19.471c-0.065-0.28,0.022-0.559,0.215-0.753l0.065-0.054l0.882-0.817l0.301,0.57
		l6.863-0.796c0.398-0.043,0.764,0.215,0.86,0.602l4.464,18.933l0.258-0.161L550.036,201.593z"/>
	<path style="fill:#426AAD;" d="M549.542,201.84l-7.641,0.883c-0.401,0.046-0.774-0.215-0.866-0.608l-4.594-19.465
		c-0.109-0.464,0.21-0.919,0.684-0.974l7.641-0.883c0.401-0.046,0.774,0.215,0.866,0.608l4.594,19.465
		C550.335,201.33,550.015,201.785,549.542,201.84z"/>
	<path style="fill:#FFFFFF;" d="M549.086,201.518l-6.91,0.75c-0.363,0.039-0.703-0.216-0.793-0.595l-4.409-18.749
		c-0.105-0.447,0.179-0.88,0.607-0.926l6.911-0.75c0.363-0.039,0.703,0.216,0.792,0.595l4.409,18.748
		C549.798,201.038,549.514,201.471,549.086,201.518z"/>
	<path style="fill:#F0AF8D;" d="M538.657,200.831c-0.407,0.602-0.928,1.1-1.466,1.583l-1.28-3.914
		c0.846,0.265,1.691,0.536,2.508,0.942l-1.005,0.062l1.876-0.342c2.098-0.489,3.815,2.253,1.861,3.115l-1.915,0.738
		c-0.678,0.261-1.399,0.387-2.125,0.365c-2.08-0.064-4.328-0.26-4.13-2.654c0.048-0.584,0.376-1.06,0.708-1.499
		c0.429-0.581,0.877-1.147,1.438-1.608C537.263,195.915,540.139,198.583,538.657,200.831L538.657,200.831z"/>
	<path style="fill:#F0AF8D;" d="M534.941,194.899c2.279,0.258,4.74,0.259,6.153,0.554c1.885,0.393,0.891,2.871-0.396,3.152
		c-0.901,0.197-1.79,0.587-3.093,0.765c0,0,0,0,0,0c-2.148,0.22-5.368,0.967-5.407-2.178c0.043-1.202,0.967-2.165,2.129-2.292
		H534.941z"/>
	<path style="fill:#F0AF8D;" d="M534.215,190.962c1.242-0.068,2.496,0.001,3.742-0.018c0.913,0.174,2.549,0.571,3.449,0.844
		c1.891,0.593,1.156,3.193-1.151,3.345c-0.909,0.06-1.807,0.039-2.706,0.023l0.427,0.007c-2.13,0.325-5.496,1.574-6.001-1.551
		C531.818,192.256,532.852,191.034,534.215,190.962L534.215,190.962z"/>
	<path style="fill:#F0AF8D;" d="M533.709,187.966l1.943-0.935c0.754-0.363,1.587-0.529,2.423-0.484l1.979,0.107
		c1.273,0.137,2.045,0.608,1.954,1.587c-0.081,0.867-0.549,1.672-2.072,1.998c-0.89,0.191-2.309,0.277-2.309,0.277l0.978-0.255
		l-2.568,1.871C532.668,193.903,530.479,189.456,533.709,187.966L533.709,187.966z"/>
	<path style="fill:#F0AF8D;" d="M553.431,196.733l-4.814-3.425l-2.54-2.612c-0.624-0.646-1.012-2.211-0.356-2.835
		c0.527-0.506,1.279-0.273,1.892,0.06l4.515,2.625c0.624,0.301,1.486,1.276,1.433,2.759
		C553.527,194.22,553.431,196.733,553.431,196.733z"/>
	<g>
		<path style="fill:#915442;" d="M534.241,199.48c-0.334,0-0.549-0.002-0.556-0.002c-0.138-0.001-0.249-0.115-0.247-0.253
			c0.002-0.137,0.113-0.247,0.25-0.247c0.001,0,0.002,0,0.003,0c0.021-0.001,2.019,0.023,3.362-0.074
			c1.345-0.097,3.043-0.315,3.06-0.317c0.135-0.02,0.262,0.079,0.28,0.216c0.018,0.137-0.079,0.263-0.216,0.28
			c-0.018,0.002-1.729,0.222-3.089,0.32C536.166,199.469,534.942,199.48,534.241,199.48z"/>
	</g>
	<g>
		<path style="fill:#915442;" d="M533.163,195.607c-0.131,0-0.241-0.102-0.249-0.233c-0.01-0.138,0.095-0.257,0.232-0.266
			c0.033-0.002,3.317-0.218,3.895-0.289l2.763,0.087c0.139,0.005,0.246,0.12,0.242,0.258c-0.005,0.135-0.115,0.242-0.25,0.242
			c-0.003,0-0.006,0-0.008,0l-2.725-0.089c-0.554,0.071-3.748,0.282-3.884,0.29C533.174,195.607,533.168,195.607,533.163,195.607z"
			/>
	</g>
	<g>
		<path style="fill:#915442;" d="M532.656,191.915c-0.108,0-0.209-0.071-0.24-0.181c-0.038-0.133,0.038-0.271,0.171-0.31
			c0.096-0.027,2.373-0.676,5.365-0.731c0.002,0,0.004,0,0.005,0c0.136,0,0.247,0.109,0.25,0.246
			c0.003,0.138-0.107,0.252-0.245,0.254c-2.924,0.053-5.214,0.704-5.236,0.711C532.702,191.912,532.679,191.915,532.656,191.915z"/>
	</g>
	<g>
		<path style="fill:#915442;" d="M537.519,203.618c-0.019,0-0.039,0-0.058,0l-0.212-0.002c-0.376-0.004-0.705-0.008-0.783-0.012
			c-0.138-0.008-0.243-0.126-0.236-0.264c0.009-0.137,0.096-0.232,0.264-0.236c0.075,0.005,0.396,0.008,0.761,0.012l0.212,0.002
			c0.674,0,1.354-0.114,1.991-0.358l1.489-0.57c0.134-0.054,0.274,0.016,0.323,0.143c0.05,0.129-0.015,0.274-0.144,0.323
			l-1.489,0.57C538.958,203.486,538.245,203.618,537.519,203.618z"/>
	</g>
	<g>
		<path style="fill:#46332E;" d="M550.207,233.385c-0.1,0-0.193-0.06-0.232-0.158l-10.062-25.337
			c-0.051-0.128,0.012-0.273,0.141-0.324c0.126-0.05,0.272,0.011,0.324,0.141l10.061,25.337c0.051,0.128-0.012,0.273-0.141,0.324
			C550.269,233.379,550.238,233.385,550.207,233.385z"/>
	</g>
	<g>
		<path style="fill:#915442;" d="M553.561,193.555c-0.039,0-0.079-0.009-0.115-0.028c-2.933-1.528-2.649-3.557-2.636-3.643
			c0.021-0.136,0.142-0.229,0.286-0.208c0.136,0.021,0.229,0.149,0.208,0.285c-0.011,0.075-0.221,1.771,2.372,3.123
			c0.123,0.064,0.17,0.215,0.107,0.337C553.737,193.506,553.651,193.555,553.561,193.555z"/>
	</g>
	<g>
		<path style="fill:#915442;" d="M560.98,226.84c-0.012,0-0.023-0.001-0.035-0.003c-0.137-0.018-0.231-0.145-0.212-0.282
			l0.014-0.097c0.483-3.536-0.138-7.078-1.798-10.24c-0.064-0.122-0.017-0.273,0.105-0.338c0.123-0.063,0.273-0.017,0.338,0.105
			c1.708,3.255,2.348,6.9,1.85,10.542l-0.015,0.098C561.209,226.75,561.103,226.84,560.98,226.84z"/>
	</g>
</g>
<g id="app">
	<path style="fill:#93BAFA;" d="M640.477,120.269H509.971c-3.134,0-5.674-2.54-5.674-5.674V83.461c0-3.134,2.54-5.674,5.674-5.674
		h130.506c3.134,0,5.674,2.54,5.674,5.674v31.134C646.151,117.729,643.61,120.269,640.477,120.269z"/>
	<path style="fill:#F0AF8D;" d="M140.05,184.754c-0.504,1.849,19.526,32.804,14.383,53.438
		c-5.065,20.318-10.648,44.575-10.648,44.575l-74.174-37.112L140.05,184.754z"/>
	<path style="fill:#47352D;" d="M104.767,235.18c0,0,3.466,1.538,14.633,3.467c6.792,1.174,12.621-9.633,21.137-11.765
		c6.762-1.693-30.378-2.102-30.378-2.102L104.767,235.18z"/>
	<path style="fill:#F0AF8D;" d="M83.927,171.381l32.162-56.817l0.606-1.071c0.974-1.721,2.375-3.115,3.946-4.086l55.867-34.229
		c5.003-3.065,11.684-4.436,14.749,0.567c2.773,4.526-0.142,11.635-6.821,18.959c-10.204,11.19-45.325,40.186-45.325,40.186
		l4.552-5.156l-30.779,57.578C101.625,206.415,73.814,191.178,83.927,171.381L83.927,171.381z"/>
	<g>
		<path style="fill:#426AAD;" d="M84.114,77.048c0,0,4.922-6.92,4.835-6.801c-0.087,0.119,5.164,8.227,5.164,8.227
			s-7.296,3.3-7.429,3.293C86.551,81.76,84.114,77.048,84.114,77.048z"/>
		<path style="fill:#426AAD;" d="M187.559,213.738c0,0-4.819,7.691-4.73,7.555c0.089-0.136-3.505-5.436-3.505-5.436l7.547-6.363
			L187.559,213.738z"/>
		<path style="fill:#426AAD;" d="M178.506,224.17l-70.305,11.383c-3.581,0.58-6.838-1.813-7.265-5.344L82.932,81.38
			c-0.414-3.419,2.136-6.462,5.685-6.798l69.717-6.592c3.339-0.316,6.387,2.104,6.815,5.405l18.643,143.621
			C184.235,220.422,181.872,223.625,178.506,224.17z"/>
		<path style="fill:#87ACE6;" d="M183.018,217.008l-69.958,11.134c-3.563,0.567-6.806-1.825-7.233-5.343L87.8,74.529
			c-0.414-3.407,2.121-6.43,5.652-6.755l69.379-6.379c3.323-0.306,6.358,2.112,6.787,5.402l18.656,143.102
			C188.717,213.292,186.367,216.475,183.018,217.008z"/>
		<path style="fill:#FFFFFF;" d="M181.063,213.124l-67.015,10.546c-2.079,0.327-3.97-1.071-4.221-3.124L92.151,75.684
			c-0.243-1.99,1.235-3.759,3.297-3.952l66.489-6.226c1.947-0.182,3.727,1.232,3.977,3.16l18.232,140.302
			C184.404,210.954,183.025,212.816,181.063,213.124z"/>
		<g>
			<defs>
				<path id="SVGID_00000114767774050315473090000012252773912116236463_" d="M180.95,213.118l-67.015,10.546
					c-2.079,0.327-3.97-1.071-4.221-3.124L92.038,75.678c-0.243-1.99,1.235-3.759,3.296-3.952l66.489-6.226
					c1.947-0.182,3.727,1.232,3.977,3.16l18.232,140.302C184.291,210.948,182.912,212.809,180.95,213.118z"/>
			</defs>
			<clipPath id="SVGID_00000015349008398682385160000018280281871245388711_">
				<use xlink:href="#SVGID_00000114767774050315473090000012252773912116236463_"  style="overflow:visible;"/>
			</clipPath>
			<path style="clip-path:url(#SVGID_00000015349008398682385160000018280281871245388711_);fill:#579948;" d="M160.543,195.062
				l-32.943,4.497c-2.565,0.35-4.904-1.539-5.221-4.211l0,0c-0.316-2.661,1.494-5.092,4.042-5.438l32.715-4.452
				c2.54-0.346,4.92,1.511,5.317,4.156l0,0C164.85,192.269,163.101,194.712,160.543,195.062z"/>
			<g style="clip-path:url(#SVGID_00000015349008398682385160000018280281871245388711_);">
				<g>
					<path style="fill:#CEE1FF;" d="M159.827,122.043l-48.194,5.505c-2.553,0.292-4.88-1.479-5.196-3.955l-3.486-27.307
						c-0.316-2.475,1.501-4.702,4.055-4.975l48.226-5.147c2.502-0.267,4.782,1.499,5.095,3.945l3.458,26.986
						C164.098,119.542,162.327,121.757,159.827,122.043z"/>
					<g>
						<path style="fill:#46332E;" d="M120.81,118.371c0.204,1.593-0.82,3.019-2.287,3.185c-1.468,0.166-2.824-0.992-3.027-2.587
							c-0.204-1.595,0.822-3.021,2.29-3.185C119.253,115.62,120.607,116.779,120.81,118.371z"/>
						<path style="fill:#46332E;" d="M141.143,116.083c0.203,1.586-0.811,3.006-2.266,3.17c-1.456,0.165-2.801-0.989-3.004-2.577
							c-0.203-1.588,0.813-3.007,2.269-3.17C139.597,113.342,140.94,114.496,141.143,116.083z"/>
						<path style="fill:#D16434;" d="M114.996,109.861l1.538-0.17c0.326-0.036,0.557-0.322,0.517-0.638l0,0
							c-0.1-0.783-0.835-1.345-1.641-1.256l-0.668,0.074c-0.47,0.052-0.804,0.464-0.746,0.92l0.043,0.338
							C114.097,109.586,114.525,109.913,114.996,109.861z"/>
						<path style="fill:#D16434;" d="M133.555,93.655l-2.68,14.877l-1.017,5.64l-0.385,2.141l-18.084,2.032l-0.101-0.792
							c-0.33-2.586,0.864-5.124,3.086-6.561l0.785-0.508c0.112-0.075,0.22-0.157,0.319-0.246l-0.001-0.004
							c0.4-0.358,0.67-0.839,0.765-1.37l1.993-11.314c0.181-1.02,0.862-1.853,1.784-2.273c0.158-0.069,0.318-0.127,0.483-0.174
							c0.161-0.043,0.328-0.076,0.5-0.094L133.555,93.655z"/>
						<path style="fill:#FFFFFF;" d="M133.555,93.655l-2.68,14.877l-15.397,1.706l-0.001-0.004c0.4-0.358,0.67-0.839,0.765-1.37
							l1.993-11.314c0.181-1.02,0.862-1.853,1.784-2.273c0.158-0.069,0.318-0.127,0.483-0.174c0.161-0.043,0.328-0.076,0.5-0.094
							L133.555,93.655z"/>
						<path style="fill:#D16434;" d="M154.209,93.793l2.493,19.461l-33.433,3.756l-0.101-0.79c-0.33-2.58,0.854-5.111,3.069-6.544
							l0.598-0.391c0.686-0.445,1.151-1.138,1.292-1.927l2.021-11.197c0.235-1.295,1.316-2.281,2.661-2.425l18.714-2.017
							C152.842,91.576,154.044,92.505,154.209,93.793z"/>
						<path style="fill:#CEE1FF;" d="M133.958,94.812c-1.285,0.139-2.309,1.103-2.516,2.368l-1.879,11.497l23.173-2.567
							l-1.425-11.127c-0.143-1.114-1.183-1.918-2.324-1.794L133.958,94.812z"/>
						<polygon style="fill:#D16434;" points="140.915,108.546 139.883,108.463 140.99,93.429 142.022,93.516 						"/>
						<path style="fill:#D16434;" d="M132.711,107.9l-1.528,0.169c-0.324,0.036-0.619-0.191-0.66-0.506l0,0
							c-0.1-0.78,0.469-1.485,1.271-1.573l0.663-0.073c0.467-0.051,0.892,0.275,0.951,0.73l0.043,0.337
							C133.509,107.438,133.178,107.849,132.711,107.9z"/>
						<g>
							<polygon style="fill:#D16434;" points="129.363,109.424 128.869,108.788 130.842,107.346 131.336,107.982 							"/>
						</g>
						<path style="fill:#46332E;" d="M135.012,116.773c0.203,1.588-0.814,3.01-2.272,3.175c-1.459,0.165-2.808-0.99-3.011-2.58
							c-0.203-1.59,0.816-3.011,2.275-3.175C133.462,114.029,134.809,115.185,135.012,116.773z"/>
						<path style="fill:#46332E;" d="M152.609,114.792c0.203,1.582-0.806,2.998-2.254,3.162c-1.449,0.164-2.788-0.987-2.991-2.572
							c-0.203-1.584,0.808-3,2.257-3.162C151.068,112.058,152.406,113.21,152.609,114.792z"/>
						<path style="fill:#D16434;" d="M128.805,116.761l-17.827,2.004c-0.371,0.042-0.709-0.216-0.755-0.576l0,0
							c-0.046-0.36,0.218-0.685,0.589-0.727l17.827-1.999c0.368-0.041,0.704,0.216,0.75,0.574l0,0
							C129.435,116.396,129.174,116.72,128.805,116.761z"/>
						<path style="fill:#D16434;" d="M146.177,114.808l-10.233,1.15c-0.367,0.041-0.702-0.215-0.748-0.573l0,0
							c-0.046-0.358,0.215-0.681,0.582-0.722l10.233-1.148c0.366-0.041,0.699,0.215,0.745,0.572l0,0
							C146.802,114.445,146.543,114.767,146.177,114.808z"/>
						<path style="fill:#D16434;" d="M123.767,117.328l-12.789,1.438c-0.371,0.042-0.709-0.216-0.755-0.576l0,0
							c-0.046-0.36,0.218-0.685,0.589-0.727l12.789-1.434c0.369-0.041,0.705,0.216,0.751,0.574l0,0
							C124.398,116.962,124.136,117.286,123.767,117.328z"/>
						<path style="fill:#FFFFFF;" d="M119.809,114.092c-0.065-0.506,0.606-0.997,1.497-1.097c0.891-0.099,1.666,0.23,1.73,0.736
							c0.065,0.506-0.605,0.997-1.496,1.096C120.649,114.928,119.873,114.598,119.809,114.092z"/>
						<path style="fill:#FFFFFF;" d="M111.604,115.008c-0.065-0.507,0.608-0.999,1.503-1.099c0.894-0.1,1.671,0.23,1.736,0.737
							c0.065,0.507-0.608,0.999-1.502,1.099C112.447,115.845,111.669,115.515,111.604,115.008z"/>
						<path style="fill:#46332E;" d="M119.501,114.575l-4.069,0.455l0,0c-0.096-0.751,0.454-1.43,1.228-1.517l1.268-0.141
							C118.701,113.285,119.405,113.824,119.501,114.575L119.501,114.575z"/>
						<g>
							<path style="fill:#FFFFFF;" d="M111.258,117.57c-0.125,0-0.233-0.094-0.248-0.222c-0.015-0.137,0.084-0.261,0.221-0.276
								l17.185-1.927c0.134-0.014,0.261,0.083,0.276,0.221c0.015,0.137-0.084,0.261-0.221,0.276l-17.185,1.927
								C111.277,117.57,111.268,117.57,111.258,117.57z"/>
						</g>
						<g>
							<path style="fill:#46332E;" d="M135.903,114.807c-0.126,0-0.233-0.094-0.248-0.222c-0.015-0.137,0.084-0.261,0.221-0.276
								l9.424-1.057c0.131-0.014,0.261,0.083,0.276,0.221c0.015,0.137-0.083,0.261-0.221,0.276l-9.424,1.057
								C135.922,114.806,135.913,114.807,135.903,114.807z"/>
						</g>
						<g>
							<path style="fill:#46332E;" d="M135.777,114.821c-0.124,0-0.231-0.092-0.248-0.218c-0.211-1.651-1.774-2.843-3.465-2.651
								l-3.157,0.352c-0.079,0.006-0.158-0.021-0.212-0.08c-0.054-0.059-0.077-0.14-0.061-0.218l0.538-2.701
								c0.027-0.136,0.161-0.224,0.294-0.196c0.135,0.027,0.223,0.159,0.196,0.294l-0.471,2.366l2.817-0.314
								c1.888-0.203,3.616,1.049,3.977,2.841l3.831-0.429l0.335-5.378c0.009-0.138,0.132-0.252,0.265-0.234
								c0.138,0.009,0.243,0.127,0.234,0.265l-0.348,5.587c-0.007,0.121-0.101,0.219-0.222,0.233l-4.275,0.479
								C135.796,114.82,135.787,114.821,135.777,114.821z"/>
						</g>
						<g>
							<path style="fill:#46332E;" d="M145.328,113.75c-0.018,0-0.035-0.002-0.052-0.005c-0.135-0.028-0.221-0.161-0.193-0.296
								c0.446-2.113,2.221-3.698,4.416-3.943l3.371-0.375l-0.258-2.013c-0.018-0.137,0.079-0.262,0.216-0.28
								c0.134-0.022,0.262,0.079,0.28,0.216l0.29,2.265c0.008,0.066-0.01,0.134-0.051,0.186c-0.042,0.053-0.103,0.087-0.169,0.094
								l-3.623,0.404c-1.981,0.221-3.581,1.647-3.983,3.55C145.547,113.669,145.443,113.75,145.328,113.75z"/>
						</g>
						<path style="fill:#D16434;" d="M127.597,110.997c0.019,0.147-0.291,0.302-0.691,0.347c-0.4,0.045-0.741-0.038-0.759-0.185
							c-0.019-0.147,0.291-0.302,0.691-0.347C127.238,110.767,127.578,110.85,127.597,110.997z"/>
					</g>
				</g>
			</g>
			<defs>
				<filter id="Adobe_OpacityMaskFilter" filterUnits="userSpaceOnUse" x="49.193" y="56.887" width="138.212" height="44.242">
					<feFlood  style="flood-color:white;flood-opacity:1" result="back"/>
					<feBlend  in="SourceGraphic" in2="back" mode="normal"/>
				</filter>
			</defs>
			
				<mask maskUnits="userSpaceOnUse" x="49.193" y="56.887" width="138.212" height="44.242" id="SVGID_00000093153446386286619150000014114488689736323252_">
				<g style="filter:url(#Adobe_OpacityMaskFilter);">
					<defs>
						
							<filter id="Adobe_OpacityMaskFilter_00000134207268947335332010000008195542435908806534_" filterUnits="userSpaceOnUse" x="49.193" y="56.887" width="138.212" height="44.242">
							<feFlood  style="flood-color:white;flood-opacity:1" result="back"/>
							<feBlend  in="SourceGraphic" in2="back" mode="normal"/>
						</filter>
					</defs>
					
						<mask maskUnits="userSpaceOnUse" x="49.193" y="56.887" width="138.212" height="44.242" id="SVGID_00000093153446386286619150000014114488689736323252_">
						<g style="filter:url(#Adobe_OpacityMaskFilter_00000134207268947335332010000008195542435908806534_);">
						</g>
					</mask>
					
						<linearGradient id="SVGID_00000087381015196821788040000016235977269169279899_" gradientUnits="userSpaceOnUse" x1="120.1163" y1="97.1013" x2="117.5796" y2="71.8836">
						<stop  offset="0" style="stop-color:#000000"/>
						<stop  offset="0.023" style="stop-color:#080808"/>
						<stop  offset="0.2379" style="stop-color:#525252"/>
						<stop  offset="0.4396" style="stop-color:#909090"/>
						<stop  offset="0.6223" style="stop-color:#C0C0C0"/>
						<stop  offset="0.7824" style="stop-color:#E2E2E2"/>
						<stop  offset="0.9137" style="stop-color:#F7F7F7"/>
						<stop  offset="1" style="stop-color:#FFFFFF"/>
					</linearGradient>
					
						<path style="clip-path:url(#SVGID_00000015349008398682385160000018280281871245388711_);mask:url(#SVGID_00000093153446386286619150000014114488689736323252_);fill:url(#SVGID_00000087381015196821788040000016235977269169279899_);" d="
						M180.8,88.051L49.193,101.13c0,0,31.533-28.379,32.792-28.781S189.04,55.628,187.385,56.965
						C185.731,58.302,180.8,88.051,180.8,88.051z"/>
				</g>
			</mask>
			
				<linearGradient id="SVGID_00000179646987303402317940000014039670863796657832_" gradientUnits="userSpaceOnUse" x1="120.1163" y1="97.1013" x2="117.5796" y2="71.8836">
				<stop  offset="0" style="stop-color:#FFFFFF"/>
				<stop  offset="0.2091" style="stop-color:#F4F8FC"/>
				<stop  offset="0.6858" style="stop-color:#DFECF6"/>
				<stop  offset="1" style="stop-color:#D7E7F4"/>
			</linearGradient>
			
				<path style="clip-path:url(#SVGID_00000015349008398682385160000018280281871245388711_);fill:url(#SVGID_00000179646987303402317940000014039670863796657832_);" d="
				M180.8,88.051L49.193,101.13c0,0,31.533-28.379,32.792-28.781S189.04,55.628,187.385,56.965
				C185.731,58.302,180.8,88.051,180.8,88.051z"/>
			<path style="clip-path:url(#SVGID_00000015349008398682385160000018280281871245388711_);fill:#CEE1FF;" d="M189.433,198.961
				l-125.418,17.54c0,0,37.849,23.13,39.169,23.201c1.32,0.071,107.808-10.862,105.869-11.738
				C207.115,227.088,189.433,198.961,189.433,198.961z"/>
			<path style="clip-path:url(#SVGID_00000015349008398682385160000018280281871245388711_);fill:#CEE1FF;" d="M180.8,73.844
				L49.193,86.923c0,0,31.533-28.378,32.792-28.781S189.04,41.421,187.385,42.758C185.731,44.095,180.8,73.844,180.8,73.844z"/>
			<g style="clip-path:url(#SVGID_00000015349008398682385160000018280281871245388711_);">
				<g>
					<path style="fill:#CEE1FF;" d="M143.953,167.543c-0.739,0-1.382-0.549-1.48-1.302c-0.106-0.818,0.472-1.567,1.29-1.673
						l24.979-3.237c0.817-0.106,1.567,0.471,1.673,1.29c0.106,0.818-0.472,1.567-1.29,1.673l-24.979,3.237
						C144.082,167.539,144.017,167.543,143.953,167.543z"/>
				</g>
				<g>
					<path style="fill:#CEE1FF;" d="M113.478,171.492c-0.739,0-1.382-0.549-1.479-1.302c-0.106-0.818,0.472-1.567,1.289-1.673
						l15.263-1.978c0.815-0.102,1.567,0.472,1.673,1.29c0.106,0.818-0.472,1.567-1.29,1.673l-15.263,1.978
						C113.607,171.488,113.542,171.492,113.478,171.492z"/>
				</g>
				<g>
					<path style="fill:#CEE1FF;" d="M159.037,174.452c-0.739,0-1.38-0.547-1.479-1.3c-0.107-0.818,0.469-1.568,1.287-1.675
						l11.029-1.444c0.824-0.108,1.567,0.469,1.675,1.287c0.107,0.818-0.469,1.568-1.287,1.675l-11.029,1.444
						C159.167,174.448,159.101,174.452,159.037,174.452z"/>
				</g>
				<g>
					<path style="fill:#CEE1FF;" d="M114.7,180.258c-0.739,0-1.38-0.547-1.479-1.3c-0.107-0.818,0.469-1.568,1.287-1.675
						l27.483-3.599c0.825-0.109,1.567,0.469,1.675,1.287c0.107,0.818-0.469,1.568-1.287,1.675l-27.483,3.599
						C114.83,180.254,114.764,180.258,114.7,180.258z"/>
				</g>
			</g>
			<path style="clip-path:url(#SVGID_00000015349008398682385160000018280281871245388711_);fill:#83C273;" d="M126.487,132.576
				l-16.067,1.861c-1.125,0.13-1.932,1.148-1.801,2.273l2.659,22.964c0.13,1.125,1.148,1.932,2.273,1.801l16.067-1.861
				L126.487,132.576z"/>
			<g style="clip-path:url(#SVGID_00000015349008398682385160000018280281871245388711_);">
				<path style="fill:#579948;" d="M113.419,161.975c-0.601,0-1.179-0.2-1.657-0.579c-0.56-0.444-0.914-1.08-0.996-1.79
					l-2.63-22.716c-0.083-0.71,0.117-1.409,0.561-1.97c0.444-0.56,1.079-0.914,1.789-0.996l52.354-6.062
					c0.713-0.084,1.41,0.117,1.97,0.56c0.56,0.444,0.914,1.08,0.996,1.79l2.631,22.715c0.083,0.71-0.117,1.41-0.561,1.97
					c-0.444,0.56-1.08,0.914-1.79,0.996l-52.353,6.063C113.627,161.969,113.522,161.975,113.419,161.975z M162.954,128.856
					l-52.354,6.063c-0.445,0.052-0.843,0.273-1.121,0.624c-0.278,0.351-0.403,0.789-0.351,1.233l2.63,22.716
					c0.052,0.445,0.273,0.843,0.624,1.121c0.351,0.278,0.788,0.4,1.233,0.352l52.354-6.063c0.445-0.052,0.843-0.273,1.121-0.624
					c0.278-0.351,0.403-0.789,0.352-1.233l-2.631-22.715c-0.052-0.445-0.273-0.843-0.624-1.121
					C163.837,128.929,163.4,128.806,162.954,128.856z"/>
			</g>
			<path style="clip-path:url(#SVGID_00000015349008398682385160000018280281871245388711_);fill:#FAB41E;" d="M140.33,137.185
				l-2.24,9.148l-1.622-1.886c2.09-0.48,7.426-1.705,9.449-2.169c-1.104,1.695-5.63,8.646-6.819,10.472l2.775-9.026l1.499,1.832
				c-2.122,0.546-7.431,1.911-9.488,2.44C134.959,146.192,139.178,139.118,140.33,137.185L140.33,137.185z"/>
		</g>
		<g>
			<path style="fill:#FFFFFF;" d="M120.117,74.837c-0.254,0-0.471-0.192-0.497-0.45c-0.027-0.275,0.173-0.52,0.448-0.547
				l19.229-1.917c0.278-0.024,0.52,0.173,0.547,0.448c0.027,0.275-0.173,0.52-0.448,0.547l-19.229,1.917
				C120.15,74.836,120.133,74.837,120.117,74.837z"/>
		</g>
		<g>
			<path style="fill:#FFFFFF;" d="M147.903,215.605c-0.748,0-1.467-0.226-2.057-0.696c-1.588-1.267-1.651-3.837-0.142-5.73
				c1.51-1.893,4.029-2.402,5.617-1.136c1.588,1.267,1.651,3.836,0.142,5.729l0,0C150.515,214.961,149.167,215.605,147.903,215.605z
				 M149.256,208.342c-0.964,0-2.018,0.517-2.77,1.46c-1.166,1.462-1.174,3.402-0.017,4.325c1.157,0.921,3.047,0.483,4.211-0.979
				l0,0c1.166-1.462,1.173-3.401,0.017-4.324C150.288,208.497,149.785,208.342,149.256,208.342z"/>
		</g>
	</g>
	<path style="fill:#F0AF8D;" d="M196.607,191.632c0.74,5.773-1.814,9.641-5.1,8.521c-3.885-1.324-5.519-3.396-6.412-8.753
		c-0.815-4.888-1.813-13.237-1.813-13.237c-3.098-14.976,9.151-21.49,12.542-6.573L196.607,191.632z"/>
	<path style="fill:#F0AF8D;" d="M42.368,222.715c1.749-5.749,3.215-11.571,4.395-17.463c2.662-13.283,7.71-38.363,10.489-53.575
		c1.461-7.999,4.553-15.6,9.092-22.347c8.222-12.22,20.886-31.051,20.893-31.129c3.571-5.555,9.614-3.904,12.511,1.247
		c3.88,6.9,2.601,17.205,0.71,24.893c-3.678,14.947-10.81,28.912-10.81,28.912l2.29-12.399c0,0,6.479,20.672,10.668,55.462
		c2.87,23.834-0.054,54.039-18.041,59.753c-24.167,8.028-48.775-2.924-43.901-27.753L42.368,222.715z"/>
	<path style="fill:#F0AF8D;" d="M189.167,138.205l-3.838,20.491c-4.036,12.395-20.231,9.211-17.763-7.211l4.532-18.777l3.754-14.416
		l-1.732-16.648c1.057-1.714,4.713,0.782,7.995,8.531l6.467,15.317C189.868,129.613,189.93,135.804,189.167,138.205z"/>
	<path style="fill:#F0AF8D;" d="M189.852,151.617c3.939,5.097,4.631,12.004,2.344,18.027l-5.159,13.584
		c-3.983,12.897-16.726,3.183-14.291-10.057c0,0,2.443-22.433,2.443-22.433c3.848-14.669,8.094-8.534,10.759-3.549l3.012,3.358
		C189.272,150.894,189.569,151.251,189.852,151.617z"/>
	<path style="fill:#FFD06B;" d="M145.577,274.513l-6.029,30.308l-0.005,0.101l-0.1,1.048l-0.017-0.009
		c-0.094,0.54-0.236,1.059-0.482,1.525c-4.432,8.387-28.96,2.123-58.624-13.52c-28.779-15.191-48.885-33.984-45.991-42.742
		l-0.014-0.001l10.176-36.088c-0.219,5.945,19.131,22.432,45.25,38.274c27.768,16.839,52.659,26.557,55.602,21.71
		C145.453,274.94,145.536,274.742,145.577,274.513z"/>
	<g>
		<path style="fill:#915442;" d="M176.216,166.499c-1.69,0-2.814-0.755-2.835-0.77c-0.165-0.115-0.206-0.342-0.092-0.508
			c0.114-0.167,0.342-0.208,0.508-0.093c0.148,0.1,3.632,2.406,7.58-2.218c4.107-4.811,5.467-14.259,5.48-14.354
			c0.028-0.2,0.209-0.343,0.413-0.312c0.2,0.028,0.339,0.213,0.311,0.413c-0.055,0.396-1.401,9.753-5.648,14.728
			C179.825,165.854,177.778,166.499,176.216,166.499z"/>
	</g>
	<g>
		<path style="fill:#915442;" d="M184.177,188.456c-0.098,0-0.195-0.039-0.267-0.116c-0.137-0.146-0.13-0.376,0.014-0.514
			c0.017-0.017,1.061-1.086,3.342-6.229c3.054-6.883,4.87-12.192,5.555-16.231c0.033-0.199,0.229-0.337,0.421-0.299
			c0.199,0.034,0.334,0.222,0.299,0.421c-0.694,4.099-2.528,9.466-5.606,16.406c-2.385,5.375-3.462,6.421-3.507,6.463
			C184.356,188.424,184.267,188.456,184.177,188.456z"/>
	</g>
	<g>
		<path style="fill:#46332E;" d="M526.516,110.998c-0.661-0.043-1.332-0.134-2.002-0.267c-0.925-0.187-1.849-0.455-2.763-0.812
			c-6.37-2.487-10.154-8.408-9.243-13.892c0.095-0.562,0.236-1.114,0.43-1.66c0.034-0.099,0.073-0.198,0.111-0.297l0.072-0.184
			h0.005c0.005-0.019,0.015-0.042,0.024-0.061l0.226-0.504l1.464-3.216c0,0,1.492-0.999,1.512-1.032
			c0,0.014-0.059,0.321-0.153,0.774c1.085-0.861,2.352-1.526,3.741-1.978c0.934-0.309,1.928-0.513,2.95-0.614
			c1.06-0.105,2.161-0.095,3.271,0.037c1.332,0.158,2.685,0.49,4.023,1.012c5.701,2.221,9.327,7.195,9.371,12.145l0.969,0.06
			l-1.917,4.285c-0.164,0.353-0.356,0.697-0.562,1.026c-0.484,0.771-1.076,1.466-1.747,2.079c-1.653,1.508-3.812,2.516-6.202,2.931
			C528.945,111.027,527.739,111.088,526.516,110.998z"/>
		<path style="fill:#FAC85F;" d="M528.09,107.508c-0.378-0.027-0.765-0.068-1.147-0.123c-0.283-0.045-0.571-0.094-0.854-0.149
			c-0.495-0.099-0.995-0.226-1.49-0.376h-0.005c-0.424-0.126-0.844-0.272-1.268-0.436c-6.37-2.482-10.154-8.408-9.239-13.892
			c0.04-0.227,0.084-0.448,0.143-0.675v-0.005c0.074-0.33,0.166-0.656,0.282-0.981c0.034-0.099,0.073-0.198,0.111-0.292
			c0.082-0.212,0.174-0.419,0.27-0.626c0.308-0.65,0.677-1.252,1.107-1.811c0.306-0.399,0.644-0.77,1.007-1.117
			c1.239-1.195,2.782-2.094,4.508-2.652c0.891-0.295,1.838-0.495,2.813-0.596c0.047-0.009,0.09-0.013,0.137-0.018
			c1.064-0.105,2.161-0.095,3.27,0.037c0.165,0.02,0.326,0.04,0.491,0.065c1.176,0.175,2.364,0.488,3.532,0.946
			c0.353,0.135,0.697,0.285,1.031,0.443c5.24,2.459,8.471,7.306,8.341,12.074c-0.021,0.813-0.146,1.629-0.37,2.431
			c-0.083,0.302-0.185,0.604-0.296,0.9c-0.077,0.188-0.154,0.377-0.241,0.561c-0.178,0.386-0.38,0.753-0.605,1.106
			c-0.378,0.606-0.818,1.165-1.318,1.667c-0.138,0.141-0.281,0.281-0.429,0.412c-1.648,1.508-3.807,2.516-6.202,2.931
			c-0.185,0.032-0.374,0.063-0.563,0.085C530.127,107.549,529.115,107.578,528.09,107.508z"/>
		<path style="fill:#E0B14D;" d="M524.468,103.667c-5.2-2.029-8.039-7.198-6.343-11.547c0.083-0.214,0.177-0.42,0.281-0.622
			c1.964-3.904,7.261-5.508,12.206-3.579c4.944,1.929,7.755,6.697,6.557,10.899c-0.06,0.219-0.131,0.434-0.215,0.648
			C535.257,103.815,529.667,105.696,524.468,103.667z"/>
		<path style="fill:#FFFFFF;" d="M524.7,102.807c-3.585-1.398-6.051-4.306-6.714-7.444c-0.554-2.622,0.43-5.146,2.614-6.7
			c2.613-1.861,6.396-2.33,9.981-0.931c4.099,1.599,6.735,5.171,6.885,8.805c0.069,1.676-0.552,3.268-1.738,4.454
			C533.157,103.563,528.799,104.406,524.7,102.807z"/>
		<g>
			<path style="fill:#3F7232;" d="M522.184,92.8c0.052-0.133,0.153-0.218,0.303-0.257c0.151-0.039,0.311-0.025,0.481,0.041
				l1.081,0.422L523.7,93.11c0.179-0.41,0.396-0.751,0.651-1.024c0.255-0.272,0.512-0.487,0.769-0.644
				c0.131-0.074,0.272-0.106,0.422-0.096c0.15,0.01,0.292,0.048,0.424,0.113c0.133,0.066,0.238,0.15,0.314,0.253
				c0.076,0.103,0.11,0.208,0.101,0.316c-0.009,0.108-0.087,0.206-0.234,0.295c-0.195,0.118-0.405,0.292-0.63,0.521
				c-0.225,0.229-0.412,0.536-0.563,0.923c-0.118,0.302-0.164,0.565-0.14,0.79c0.025,0.225,0.105,0.414,0.24,0.568
				c0.136,0.154,0.313,0.273,0.532,0.359c0.178,0.069,0.346,0.1,0.503,0.092c0.157-0.008,0.313-0.062,0.469-0.161
				c0.155-0.099,0.311-0.254,0.468-0.464l0.654-0.851c0.376-0.486,0.807-0.791,1.294-0.914c0.486-0.123,1.037-0.065,1.653,0.175
				c0.477,0.186,0.871,0.44,1.179,0.762c0.309,0.322,0.515,0.684,0.619,1.086c0.104,0.402,0.094,0.823-0.03,1.261l-0.112-0.252
				l1.02,0.398c0.17,0.066,0.297,0.164,0.382,0.295c0.084,0.13,0.101,0.262,0.049,0.395c-0.049,0.127-0.15,0.211-0.301,0.253
				c-0.151,0.042-0.312,0.029-0.482-0.037l-1.02-0.398l0.268-0.114c-0.109,0.256-0.29,0.514-0.54,0.775
				c-0.251,0.26-0.537,0.456-0.859,0.588c-0.132,0.053-0.267,0.07-0.405,0.051c-0.137-0.019-0.26-0.063-0.368-0.133
				c-0.108-0.07-0.19-0.154-0.245-0.252c-0.055-0.098-0.069-0.199-0.042-0.303c0.026-0.104,0.113-0.201,0.26-0.29
				c0.206-0.121,0.394-0.274,0.564-0.458c0.17-0.184,0.313-0.427,0.431-0.729c0.151-0.386,0.154-0.735,0.009-1.045
				c-0.145-0.31-0.404-0.538-0.776-0.683c-0.275-0.107-0.522-0.127-0.74-0.059c-0.218,0.068-0.438,0.243-0.66,0.525l-0.676,0.873
				c-0.396,0.513-0.831,0.833-1.306,0.961c-0.475,0.128-1.011,0.075-1.611-0.159c-0.47-0.183-0.85-0.433-1.143-0.748
				c-0.292-0.316-0.486-0.668-0.582-1.056c-0.096-0.388-0.093-0.796,0.008-1.222l0.188,0.272l-1.094-0.427
				c-0.17-0.066-0.297-0.164-0.382-0.295C522.149,93.064,522.132,92.932,522.184,92.8z"/>
		</g>
	</g>
	<g>
		<path style="fill:#46332E;" d="M555.172,95.157c0.003-0.001,2.767,1.692,2.767,1.692l0.001,0.003
			c2.01,1.158,1.596,5.912-0.944,10.677c-2.565,4.814-6.325,7.818-8.397,6.714c-0.044-0.023-2.956-1.811-2.956-1.811l1.651-3.372
			c0,0,0.053,0.071,0.146,0.194c0.296-1.729,0.987-3.725,2.051-5.724c1.698-3.189,3.923-5.583,5.835-6.512
			C555.256,96.123,555.179,95.175,555.172,95.157z"/>
		<path style="fill:#FAC85F;" d="M546.705,101.827c2.565-4.811,6.323-7.816,8.395-6.711c2.072,1.104,1.673,5.9-0.892,10.711
			c-2.565,4.811-6.323,7.816-8.395,6.711C543.742,111.434,544.141,106.638,546.705,101.827z"/>
		
			<ellipse transform="matrix(0.4704 -0.8825 0.8825 0.4704 200.0023 540.3649)" style="fill:#E0B14D;" cx="550.198" cy="103.554" rx="7.723" ry="2.53"/>
		<path style="fill:#FFFFFF;" d="M548.307,102.605c2.006-3.764,4.579-6.311,5.747-5.689c1.167,0.622,0.487,4.178-1.52,7.942
			c-2.006,3.764-4.579,6.311-5.747,5.689C545.62,109.925,546.301,106.369,548.307,102.605z"/>
		<g>
			<path style="fill:#3F7232;" d="M552.611,99.239c0.057,0.03,0.08,0.098,0.069,0.204c-0.01,0.106-0.049,0.222-0.116,0.347
				l-0.425,0.798l0.017-0.245c0.171,0.107,0.299,0.244,0.386,0.413c0.087,0.169,0.144,0.341,0.172,0.518
				c0.011,0.09,0,0.19-0.035,0.298c-0.035,0.108-0.081,0.212-0.141,0.31c-0.059,0.099-0.122,0.179-0.189,0.239
				c-0.067,0.06-0.126,0.09-0.179,0.089c-0.052-0.001-0.086-0.052-0.102-0.152c-0.021-0.134-0.067-0.275-0.138-0.424
				c-0.07-0.149-0.188-0.268-0.352-0.355c-0.128-0.068-0.251-0.088-0.369-0.059c-0.118,0.03-0.229,0.097-0.333,0.202
				c-0.104,0.106-0.199,0.239-0.285,0.401c-0.07,0.131-0.119,0.254-0.146,0.366c-0.027,0.112-0.031,0.222-0.012,0.328
				c0.019,0.106,0.066,0.21,0.141,0.311l0.298,0.424c0.17,0.244,0.238,0.537,0.204,0.88c-0.034,0.342-0.172,0.741-0.415,1.195
				c-0.188,0.353-0.393,0.648-0.616,0.886c-0.223,0.238-0.445,0.406-0.668,0.502c-0.223,0.096-0.432,0.111-0.628,0.046l0.149-0.093
				l-0.401,0.753c-0.067,0.126-0.142,0.222-0.224,0.29s-0.151,0.086-0.208,0.056c-0.054-0.029-0.076-0.096-0.068-0.203
				c0.009-0.106,0.047-0.222,0.114-0.348l0.401-0.753l0.004,0.187c-0.107-0.065-0.201-0.181-0.283-0.347
				c-0.081-0.166-0.123-0.361-0.126-0.585c0-0.092,0.018-0.188,0.054-0.288c0.037-0.1,0.083-0.19,0.14-0.271
				c0.056-0.081,0.115-0.144,0.175-0.189c0.06-0.044,0.114-0.06,0.161-0.046c0.047,0.013,0.079,0.071,0.094,0.171
				c0.021,0.141,0.06,0.268,0.119,0.38c0.059,0.112,0.153,0.202,0.281,0.271c0.164,0.088,0.339,0.071,0.523-0.049
				c0.185-0.12,0.35-0.318,0.497-0.593c0.108-0.203,0.167-0.381,0.176-0.534c0.009-0.153-0.036-0.301-0.133-0.446l-0.305-0.439
				c-0.18-0.257-0.255-0.552-0.225-0.886c0.029-0.334,0.162-0.722,0.398-1.164c0.185-0.347,0.385-0.633,0.602-0.86
				c0.216-0.226,0.432-0.384,0.646-0.473c0.214-0.089,0.418-0.109,0.613-0.059l-0.174,0.149l0.43-0.807
				c0.067-0.125,0.141-0.222,0.224-0.29C552.485,99.228,552.554,99.209,552.611,99.239z"/>
		</g>
	</g>
	<path style="fill:#93BAFA;" d="M420.736,91.781h-61.815c-2.63,0-4.762-2.132-4.762-4.762v-33.56c0-2.63,2.132-4.762,4.762-4.762
		h61.815c2.63,0,4.762,2.132,4.762,4.762v33.56C425.498,89.648,423.366,91.781,420.736,91.781z"/>
	<path style="fill:#93BAFA;" d="M453.47,138.962h-59.387c-2.31,0-4.182-1.872-4.182-4.182v-8.225c0-2.31,1.872-4.182,4.182-4.182
		h59.387c2.31,0,4.182,1.872,4.182,4.182v8.225C457.652,137.089,455.78,138.962,453.47,138.962z"/>
	<g>
		<g>
			<path style="fill:#FFFFFF;" d="M617.551,91.079h-48.009c-0.276,0-0.5-0.224-0.5-0.5c0-0.276,0.224-0.5,0.5-0.5h48.009
				c0.276,0,0.5,0.224,0.5,0.5C618.051,90.855,617.827,91.079,617.551,91.079z"/>
		</g>
		<g>
			<path style="fill:#FFFFFF;" d="M635.699,99.515h-66.157c-0.276,0-0.5-0.224-0.5-0.5c0-0.276,0.224-0.5,0.5-0.5h66.157
				c0.276,0,0.5,0.224,0.5,0.5C636.199,99.291,635.976,99.515,635.699,99.515z"/>
		</g>
		<g>
			<path style="fill:#FFFFFF;" d="M595.026,107.951h-25.484c-0.276,0-0.5-0.224-0.5-0.5s0.224-0.5,0.5-0.5h25.484
				c0.276,0,0.5,0.224,0.5,0.5S595.303,107.951,595.026,107.951z"/>
		</g>
	</g>
	<g>
		<g>
			<path style="fill:#EFBC52;" d="M401.851,126.794l0.359,2.718l2.837-0.118c0.366-0.015,0.45,0.458,0.117,0.66l-2.581,1.562
				l0.593,2.646c0.077,0.342-0.369,0.634-0.621,0.408l-1.954-1.753l-2.471,1.753c-0.319,0.226-0.678-0.066-0.501-0.408l1.373-2.646
				l-2.12-1.562c-0.274-0.202-0.05-0.675,0.312-0.66l2.803,0.118l1.16-2.718C401.307,126.443,401.805,126.443,401.851,126.794z"/>
			<path style="fill:#FFFFFF;" d="M397.896,135.07c-0.152,0-0.3-0.053-0.42-0.157c-0.224-0.196-0.276-0.517-0.129-0.798l1.247-2.403
				l-1.9-1.4c-0.227-0.167-0.31-0.455-0.212-0.734c0.109-0.309,0.414-0.51,0.727-0.502l2.582,0.108l1.073-2.515
				c0.132-0.31,0.447-0.499,0.772-0.451c0.285,0.039,0.494,0.249,0.532,0.535l0.32,2.429l2.545-0.105c0.34,0,0.548,0.16,0.632,0.438
				c0.092,0.305-0.046,0.64-0.335,0.815l-2.385,1.443l0.543,2.421c0.067,0.299-0.076,0.61-0.357,0.774
				c-0.266,0.156-0.576,0.132-0.789-0.059l-1.764-1.583l-2.263,1.605C398.185,135.023,398.038,135.07,397.896,135.07z
				 M400.625,132.508l2.143,1.924c0.005-0.001,0.041-0.01,0.072-0.043l-0.62-2.927l2.777-1.682c0.058-0.034,0.058-0.075,0.055-0.084
				l-3.121,0.146l-0.398-3.008l0.317-0.042l-0.318,0.037c0.007,0.016-0.053,0.021-0.081,0.088l-1.247,2.922l-3.023-0.127l-0.1,0.098
				l2.331,1.71l-1.498,2.888L400.625,132.508z"/>
		</g>
		<g>
			<path style="fill:#EFBC52;" d="M413.206,126.794l0.359,2.718l2.837-0.118c0.366-0.015,0.45,0.458,0.117,0.66l-2.581,1.562
				l0.593,2.646c0.077,0.342-0.369,0.634-0.621,0.408l-1.954-1.753l-2.471,1.753c-0.319,0.226-0.678-0.066-0.501-0.408l1.373-2.646
				l-2.12-1.562c-0.274-0.202-0.05-0.675,0.312-0.66l2.803,0.118l1.16-2.718C412.662,126.443,413.16,126.443,413.206,126.794z"/>
			<path style="fill:#FFFFFF;" d="M409.25,135.07c-0.152,0-0.3-0.053-0.42-0.157c-0.224-0.196-0.276-0.517-0.129-0.798l1.247-2.403
				l-1.9-1.4c-0.227-0.167-0.31-0.455-0.211-0.733c0.109-0.309,0.405-0.511,0.725-0.503l2.582,0.108l1.074-2.515
				c0.132-0.31,0.448-0.499,0.772-0.451c0.285,0.039,0.494,0.248,0.532,0.534l0.001,0l0.319,2.429l2.546-0.105
				c0.332,0,0.549,0.16,0.632,0.438c0.092,0.305-0.046,0.64-0.335,0.815l-2.385,1.443l0.542,2.421
				c0.067,0.299-0.077,0.61-0.357,0.775c-0.266,0.154-0.574,0.132-0.789-0.06l-1.764-1.582l-2.263,1.605
				C409.539,135.023,409.393,135.07,409.25,135.07z M411.98,132.508l2.145,1.924c0.005-0.001,0.041-0.011,0.071-0.043l-0.619-2.926
				l2.777-1.682c0.058-0.034,0.058-0.075,0.055-0.084l-3.122,0.146l-0.398-3.008l0.317-0.042l-0.317,0.037
				c0.006,0.016-0.054,0.021-0.082,0.088l-1.248,2.922l-3.023-0.127l-0.1,0.099l2.331,1.709l-1.498,2.888L411.98,132.508z"/>
		</g>
		<g>
			<path style="fill:#EFBC52;" d="M424.561,126.794l0.359,2.718l2.837-0.118c0.366-0.015,0.45,0.458,0.117,0.66l-2.581,1.562
				l0.593,2.646c0.077,0.342-0.369,0.634-0.621,0.408l-1.954-1.753l-2.471,1.753c-0.319,0.226-0.678-0.066-0.501-0.408l1.373-2.646
				l-2.12-1.562c-0.274-0.202-0.05-0.675,0.312-0.66l2.803,0.118l1.16-2.718C424.017,126.443,424.515,126.443,424.561,126.794z"/>
			<path style="fill:#FFFFFF;" d="M420.605,135.07c-0.152,0-0.3-0.053-0.42-0.157c-0.224-0.196-0.276-0.517-0.129-0.798l1.247-2.403
				l-1.9-1.4c-0.227-0.167-0.31-0.455-0.212-0.734c0.11-0.309,0.413-0.51,0.727-0.502l2.582,0.108l1.073-2.515
				c0.132-0.31,0.449-0.499,0.773-0.451c0.285,0.039,0.494,0.249,0.532,0.535l0.32,2.429l2.545-0.105c0.34,0,0.548,0.16,0.632,0.438
				c0.092,0.305-0.046,0.64-0.335,0.815l-2.385,1.443l0.543,2.421c0.067,0.299-0.076,0.61-0.357,0.774
				c-0.266,0.156-0.577,0.132-0.789-0.059l-1.764-1.583l-2.263,1.605C420.895,135.023,420.748,135.07,420.605,135.07z
				 M423.335,132.508l2.144,1.924c0.005-0.001,0.041-0.01,0.072-0.043l-0.62-2.927l2.777-1.682c0.058-0.034,0.058-0.075,0.055-0.084
				l-3.121,0.146l-0.398-3.008l0.317-0.042l-0.318,0.037c0.007,0.016-0.053,0.021-0.081,0.088l-1.247,2.922l-3.023-0.127l-0.1,0.098
				l2.331,1.71l-1.498,2.888L423.335,132.508z"/>
		</g>
		<g>
			<path style="fill:#EFBC52;" d="M435.916,126.794l0.359,2.718l2.837-0.118c0.366-0.015,0.45,0.458,0.117,0.66l-2.581,1.562
				l0.593,2.646c0.077,0.342-0.369,0.634-0.621,0.408l-1.954-1.753l-2.471,1.753c-0.319,0.226-0.678-0.066-0.501-0.408l1.373-2.646
				l-2.12-1.562c-0.274-0.202-0.05-0.675,0.312-0.66l2.803,0.118l1.16-2.718C435.372,126.443,435.87,126.443,435.916,126.794z"/>
			<path style="fill:#FFFFFF;" d="M431.96,135.07c-0.152,0-0.3-0.053-0.42-0.157c-0.224-0.196-0.276-0.517-0.129-0.798l1.247-2.403
				l-1.9-1.4c-0.227-0.167-0.31-0.455-0.211-0.733c0.108-0.309,0.404-0.511,0.726-0.503l2.582,0.108l1.074-2.515
				c0.132-0.31,0.45-0.499,0.772-0.451c0.285,0.039,0.494,0.248,0.532,0.534l0.001,0l0.319,2.429l2.546-0.105
				c0.332,0,0.549,0.16,0.632,0.438c0.092,0.305-0.047,0.64-0.337,0.815l-2.383,1.443l0.542,2.421
				c0.067,0.299-0.077,0.61-0.357,0.775c-0.266,0.154-0.573,0.132-0.789-0.06l-1.764-1.582l-2.263,1.605
				C432.249,135.023,432.103,135.07,431.96,135.07z M434.689,132.508l2.145,1.924c0.005-0.001,0.041-0.011,0.071-0.043l-0.619-2.926
				l2.776-1.682c0.058-0.035,0.059-0.076,0.056-0.084l-3.122,0.147l-0.397-3.008l0.317-0.042l-0.317,0.037
				c0.006,0.016-0.054,0.021-0.082,0.088l-1.248,2.922l-3.023-0.127l-0.1,0.099l2.331,1.709l-1.498,2.888L434.689,132.508z"/>
		</g>
		<g>
			<path style="fill:#EFBC52;" d="M447.271,126.794l0.359,2.718l2.837-0.118c0.366-0.015,0.45,0.458,0.117,0.66l-2.581,1.562
				l0.593,2.646c0.077,0.342-0.369,0.634-0.621,0.408l-1.954-1.753l-2.471,1.753c-0.319,0.226-0.678-0.066-0.501-0.408l1.373-2.646
				l-2.12-1.562c-0.274-0.202-0.05-0.675,0.312-0.66l2.803,0.118l1.16-2.718C446.727,126.443,447.225,126.443,447.271,126.794z"/>
			<path style="fill:#FFFFFF;" d="M443.315,135.07c-0.152,0-0.3-0.052-0.42-0.157c-0.224-0.195-0.276-0.516-0.131-0.798l1.248-2.403
				l-1.9-1.4c-0.227-0.167-0.31-0.455-0.212-0.734c0.11-0.309,0.412-0.51,0.727-0.502l2.582,0.108l1.073-2.515
				c0.132-0.31,0.452-0.499,0.772-0.451c0.285,0.039,0.494,0.249,0.532,0.535l0.32,2.429l2.545-0.105c0.34,0,0.548,0.16,0.632,0.438
				c0.092,0.305-0.046,0.64-0.335,0.815l-2.385,1.443l0.543,2.421c0.067,0.299-0.076,0.61-0.358,0.774
				c-0.266,0.156-0.576,0.132-0.789-0.059l-1.764-1.583l-2.263,1.605C443.605,135.023,443.458,135.07,443.315,135.07z
				 M446.045,132.508l2.143,1.924c0.005-0.001,0.041-0.01,0.072-0.043l-0.62-2.927l2.777-1.682c0.058-0.034,0.058-0.075,0.055-0.084
				l-3.121,0.146l-0.398-3.008l0.317-0.042l-0.318,0.037c0.007,0.016-0.053,0.021-0.081,0.088l-1.247,2.922l-3.023-0.127l-0.1,0.098
				l2.332,1.71l-1.5,2.888L446.045,132.508z"/>
		</g>
	</g>
	<path style="fill:#426AAD;" d="M403.87,80.034h-28.083c-5.41,0-9.796-4.386-9.796-9.796l0,0c0-5.41,4.386-9.796,9.796-9.796h28.083
		c5.41,0,9.796,4.386,9.796,9.796l0,0C413.666,75.648,409.28,80.034,403.87,80.034z"/>
	<path style="fill:#46332E;" d="M416.709,70.239c0-5.838-4.642-10.58-10.434-10.766v-0.002l-0.06-0.001
		c-0.097-0.002-0.191-0.014-0.288-0.014c-0.061,0-0.12,0.008-0.18,0.009l-1.798-0.021l-0.002,0.201
		c-5.008,0.931-8.803,5.315-8.803,10.593c0,5.191,3.67,9.524,8.556,10.55l-0.003,0.231l2.326,0.027l0-0.03
		C411.934,80.964,416.709,76.161,416.709,70.239z"/>
	
		<ellipse transform="matrix(0.7554 -0.6553 0.6553 0.7554 52.7743 281.8511)" style="fill:#FFD06B;" cx="403.905" cy="70.238" rx="10.783" ry="10.783"/>
</g>
</svg>
